<?xml version="1.0" standalone="no"?>
<!DOCTYPE svg PUBLIC "-//W3C//DTD SVG 1.1//EN" "http://www.w3.org/Graphics/SVG/1.1/DTD/svg11.dtd" >
<!--
2013-9-30: Created.
-->
<svg>
<metadata>
Created by iconfont
</metadata>
<defs>

<font id="iconfont" horiz-adv-x="1024" >
  <font-face
    font-family="iconfont"
    font-weight="500"
    font-stretch="normal"
    units-per-em="1024"
    ascent="896"
    descent="-128"
  />
    <missing-glyph />
    
    <glyph glyph-name="x" unicode="x" horiz-adv-x="1001"
d="M281 543q-27 -1 -53 -1h-83q-18 0 -36.5 -6t-32.5 -18.5t-23 -32t-9 -45.5v-76h912v41q0 16 -0.5 30t-0.5 18q0 13 -5 29t-17 29.5t-31.5 22.5t-49.5 9h-133v-97h-438v97zM955 310v-52q0 -23 0.5 -52t0.5 -58t-10.5 -47.5t-26 -30t-33 -16t-31.5 -4.5q-14 -1 -29.5 -0.5
t-29.5 0.5h-32l-45 128h-439l-44 -128h-29h-34q-20 0 -45 1q-25 0 -41 9.5t-25.5 23t-13.5 29.5t-4 30v167h911zM163 247q-12 0 -21 -8.5t-9 -21.5t9 -21.5t21 -8.5q13 0 22 8.5t9 21.5t-9 21.5t-22 8.5zM316 123q-8 -26 -14 -48q-5 -19 -10.5 -37t-7.5 -25t-3 -15t1 -14.5
t9.5 -10.5t21.5 -4h37h67h81h80h64h36q23 0 34 12t2 38q-5 13 -9.5 30.5t-9.5 34.5q-5 19 -11 39h-368zM336 498v228q0 11 2.5 23t10 21.5t20.5 15.5t34 6h188q31 0 51.5 -14.5t20.5 -52.5v-227h-327z" />
    

    
    <glyph glyph-name="78" unicode="&#58987;" d="M954.186 499.914c-3.361 3.492-7.857 5.238-12.383 5.238L500.621 505.152l-17.927 0-36.202 142.977c-1.106 3.317-3.187 6.315-6.243 8.527-3.056 2.183-6.591 3.23-10.04 3.23L167.523 659.886c-4.395 0-8.789-1.688-12.15-5.035-3.361-3.347-5.049-7.77-5.049-12.164l-34.369-137.535L82.197 505.152c-4.496 0-8.993-1.746-12.383-5.238-3.361-3.521-4.977-8.09-4.802-12.572l33.103-530.669c0.175-4.308 1.921-8.526 5.268-11.757 3.332-3.23 7.625-4.802 11.932-4.802L891.5-59.886c4.293 0 8.6 1.571 11.946 4.802 3.332 3.23 5.078 7.449 5.238 11.757l50.303 530.669C959.162 491.824 957.547 496.393 954.186 499.914zM177.898 630.086l242.417 0 31.619-124.875L146.687 505.211 177.898 630.086zM880.034-30.086 127.116-30.086 95.642 475.352l43.58 0 0.015 0.058 320.25 0 0.015-0.058 468.376 0L880.034-30.086z"  horiz-adv-x="1024" />

    
    <glyph glyph-name="jiage" unicode="&#58986;" d="M512 893.72444445C230.48647111 893.72444445 2.27555555 665.51352889 2.27555555 384c0-281.44071111 228.21091555-509.72444445 509.72444445-509.72444445 281.51352889 0 509.72444445 228.28373333 509.72444445 509.72444445C1021.72444445 665.51352889 793.51352889 893.72444445 512 893.72444445zM714.21496889 422.15651555l0-107.69749333L571.71057778 314.45902221999995l0-37.35552 142.50439111 0 0-107.84312889L571.71057778 169.26037333l0-103.54688L465.54225778 65.71349333l0 103.54688L327.04284445 169.26037333 327.04284445 277.10350222l138.49941333 0L465.54225778 314.45902221999995 327.04284445 314.45902221999995 327.04284445 422.15651555l80.9005511 0L272.28387555 672.21276445l122.55232 0L512 456.52650667l117.09098667 215.68625778 122.62513778 0L616.05660445 422.15651555 714.21496889 422.15651555z"  horiz-adv-x="1024" />

    
    <glyph glyph-name="shangpinguanliicon" unicode="&#58962;" d="M1018.61795954 320.60413383L827.85054379 830.03095609 657.36398393 830.03095609l0-116.01734428 107.31074674-0.0419146 126.83597482-393.40947684L651.24561351 320.56221923l-64.55084601-116.19431765L428.24818233 204.36790157999997l-59.27076864 116.02665927L128.48295595 320.39456084999995l126.99199032 393.7948581 107.28978888-0.04075065 0 115.88228665L192.13380267 830.03095609 1.09743445 320.38524700999994l0-382.23806578 1017.73941305 0.22820181L1018.61795954 320.60413383 1018.61795954 320.60413383zM447.55685149 564.82433593L259.83406649 564.82433593l250.22563556-290.0130907 250.22563555 290.0130907L572.56138979 564.82433593 572.56138979 830.11478528 447.55685149 830.11478528 447.55685149 564.82433593 447.55685149 564.82433593zM447.55685149 564.82433593"  horiz-adv-x="1024" />

    
    <glyph glyph-name="denggaofenbu" unicode="&#59006;" d="M1006.526933-99.935495 1006.526933-127.237997 343.204935-127.237997 343.204935-100.380123 343.204935-66.277905 343.204935 833.952154 343.204935 894.793374 343.204935 894.912246 946.328842 894.912246 946.328842 895.238001 1007.289315 895.238001 1007.289315-99.935495 1006.526933-99.935495ZM946.328842 833.952154 404.165408 833.952154 404.165408-66.277905 946.328842-66.277905 946.328842 833.952154ZM156.514654-22.060121 226.618379-22.060121 122.778197-127.085596 16.710685-22.060121 95.554944-22.060121 95.554944 790.291774 20.705857 790.291774 124.541086 895.234572 230.602883 790.291774 156.514654 790.291774 156.514654-22.060121Z"  horiz-adv-x="1024" />

    
    <glyph glyph-name="dengkuanfenbu" unicode="&#59011;" d="M1028.817361 209.659741 965.886449 209.659741 3.043496 209.659741 3.043496 209.78285 2.957753 209.78285 2.957753 894.426727 3.043496 894.426727 3.043496 895.213364 965.886449 895.213364 1028.030725 895.213364 1028.817361 895.213364 1028.817361 272.590653 1029.21068 272.590653 1029.21068 209.659741 1028.817361 209.659741ZM965.886449 832.282452 65.900858 832.282452 65.900858 272.590653 965.886449 272.590653 965.886449 832.282452ZM92.658295 17.093511 916.721674 17.093511 916.721674 89.45344 1025.162255-17.730489 916.721674-127.213364 916.721674-45.825208 92.658295-45.825208 92.658295-106.785203 0.786636-15.910999 92.658295 76.912489 92.658295 17.093511Z"  horiz-adv-x="1030" />

    
    <glyph glyph-name="zhongliangweight9" unicode="&#58976;" d="M966.592 439.776 963.072 439.776l0 30.016c0 28.64-23.232 51.872-51.872 51.872l-14.944 0 0 41.76c0 28.64-23.264 51.872-51.872 51.872l-86.816 0c-28.64 0-51.84-23.232-51.84-51.872l0-123.648L317.984 439.776l0 123.648c0 28.64-23.264 51.872-51.872 51.872L179.296 615.296c-28.608 0-51.84-23.232-51.84-51.872l0-41.76-15.04 0c-28.608 0-51.84-23.232-51.84-51.872l0-30.016L53.76 439.776c-29.632 0-53.76-23.808-53.76-53.504 0-29.664 24.128-53.472 53.76-53.472l6.816 0 0-30.016c0-28.64 23.232-51.872 51.84-51.872l15.04 0 0-41.728c0-28.64 23.232-51.872 51.84-51.872L266.112 157.312c28.608 0 51.872 23.232 51.872 51.872L317.984 332.8l387.744 0 0-123.616c0-28.64 23.2-51.872 51.84-51.872l86.816 0c28.64 0 51.872 23.232 51.872 51.872l0 41.728 14.944 0c28.64 0 51.872 23.232 51.872 51.872L963.072 332.8l3.488 0c29.696 0 53.792 23.808 53.792 53.472C1020.384 415.968 996.288 439.776 966.592 439.776z"  horiz-adv-x="1026" />

    
    <glyph glyph-name="export" unicode="&#59093;" d="M768 577.6h-121.6c-11.2 0-20.8-9.6-20.8-20.8s9.6-20.8 20.8-20.8h121.6c33.6 0 60.8-27.2 60.8-60.8v-470.4c0-33.6-27.2-60.8-60.8-60.8h-512c-33.6 0-60.8 27.2-60.8 60.8v472c0 33.6 27.2 60.8 60.8 60.8h144c11.2 0 20.8 9.6 20.8 20.8s-9.6 20.8-20.8 20.8h-144c-56 0-102.4-46.4-102.4-102.4v-470.4c0-56 46.4-102.4 102.4-102.4h512c56 0 102.4 46.4 102.4 102.4v470.4c-1.6 56-46.4 100.8-102.4 100.8zM364.8 670.4l126.4 126.4v-544c0-11.2 11.2-19.2 19.2-19.2s19.2 4.8 19.2 19.2v544l124.8-124.8c6.4-6.4 19.2-8 27.2 0s8 19.2 0 27.2l-158.4 158.4c-1.6 1.6-1.6 1.6-3.2 3.2 0 1.6-4.8 3.2-8 3.2v0c-4.8 0-9.6-1.6-14.4-6.4v0 0c0 0-1.6-1.6-1.6-1.6l-158.4-158.4c-6.4-6.4-8-20.8 0-27.2s20.8-8 27.2 0z"  horiz-adv-x="1024" />

    
    <glyph glyph-name="pandian" unicode="&#58967;" d="M743.24672754-105.79626363c-123.6624161 0-223.90853055 100.247356-223.90853055 223.90728901 0 123.66117456 100.24611445 223.90853055 223.90853055 223.90853056 123.65993301 0 223.90604747-100.247356 223.90604748-223.90853056C967.15277502-5.5489076400000386 866.90666055-105.79626363 743.24672754-105.79626363zM869.83757855 234.30829275999997L701.61401992 66.08721722999996l-98.95328093 98.95452369-39.58106431-39.58106431 138.53434524-138.53558679L909.41864284 194.72722844999998 869.83757855 234.30829275999997zM563.93286966 314.02928204L211.4687783 314.02928204l0-55.97558041 306.00157837 0c-15.82571945-25.47912249-27.60652178-53.70411842-34.09552635-83.96461276L211.4687783 174.08909008l0-55.9780647 265.88897462 0c0-51.41775307 14.83963931-99.25755002 40.1113622-139.94143471L155.49071481-21.830409329999952c-30.91498294 0-55.97682195 25.061839-55.97682195 55.97682195L99.51389164 817.82068323c0 30.91498294 25.061839 55.97558041 55.97682196 55.9755804l573.76335947 0 125.94629716-125.94753991 0-388.81741907c-34.06323651 15.85925083-71.90189519 24.9699369-111.95240235 24.9699369C674.05096428 384.00124155 611.23615979 357.34726852999995 563.93286966 314.02928204zM211.4687783 397.9963791l531.77919078 0 0 55.9755804L211.4687783 453.9719595 211.4687783 397.9963791zM211.4687783 537.9365722699999l531.77919078 0 0 55.9780647L211.4687783 593.91463575 211.4687783 537.9365722699999zM631.29184088 733.85607046L211.4687783 733.85607046l0-55.97682194 419.82430413 0L631.29308243 733.85607046zM701.26380039 845.80971557l0-125.9475399 125.94753992 0L701.26380039 845.80971557z"  horiz-adv-x="1024" />

    
    <glyph glyph-name="stock" unicode="&#58881;" d="M65.344-48.639999999999986l893.312 0 0-72.064-893.312 0 0 72.064ZM838.016 856L185.984 856c-70.656 0-128-57.344-128-128l0-531.968c0-70.656 57.344-128 128-128l652.032 0c70.656 0 128 57.344 128 128L966.016 728C966.016 798.656 908.672 856 838.016 856zM832 409.344l-60.032 0 0-193.344L254.976 216 256 409.344 192 409.344 192 480l325.312 275.968L832 467.968 832 409.344zM512 629.696L316.032 459.712 316.032 275.648 446.72 275.648 446.72 401.024 577.344 401.024 577.344 275.648 707.968 275.648 707.968 459.712Z"  horiz-adv-x="1024" />

    
    <glyph glyph-name="cangweiguanl" unicode="&#59114;" d="M1021.67438222 340.97038222000003v-195.05038222c0-11.25034667-2.97756445-21.73041778-8.90766222-31.41518222-5.94147555-9.69272889-14.06748445-17.03253333-24.38257778-22.03420445l-210.05653333-105.02940444c-7.81653333-4.37361778-16.72647111-6.56497778-26.72412444-6.56497778-10.00789333 0-18.91555555 2.19022222-26.72412445 6.56497778l-210.05425778 105.02940444c-1.25155555 0.63032889-2.34382222 1.25155555-3.28135111 1.87619556-0.63374222-0.62236445-1.72259555-1.24359111-3.28362666-1.87619556l-210.05425778-105.02940444c-7.81653333-4.37361778-16.72647111-6.56497778-26.72526222-6.56497778-10.00675555 0-18.91555555 2.19022222-26.72412445 6.56497778l-210.05425778 105.02940444c-10.31623111 5.00394667-18.44679111 12.34488889-24.38144 22.03420445-5.94033778 9.68476445-8.90766222 20.16256-8.90766222 31.41518222v195.05038222c0 11.87612445 3.35530667 22.81585778 10.08071111 32.82261333 6.71744 10.00106667 15.54773333 17.50243555 26.49088 22.50638223l203.48928 87.20952889v187.55015111c0 11.87612445 3.35530667 22.81358222 10.08184889 32.82261333 6.71630222 9.99992889 15.54773333 17.50129778 26.49088 22.50638222l210.05425778 90.02325334c7.18734222 3.11978667 15.00273778 4.68878222 23.44391111 4.68878222 8.43889778 0 16.25201778-1.56899555 23.44277333-4.68878222l210.05653333-90.02325334c10.93859555-5.00394667 19.76775111-12.50645333 26.48974223-22.50638222 6.71744-10.00675555 10.08184889-20.94648889 10.08184889-32.82261333v-187.54787556l203.48928-87.20952889c11.25376-5.00394667 20.16256-12.50645333 26.72412444-22.50638222 6.56156445-10.00789333 9.84632889-20.94762667 9.84632889-32.82375111zM271.47719111 268.76700444999994l189.42407111 81.11331555-189.42407111 81.11672889-189.42407111-81.11672889 189.42407111-81.11331555zM301.48494222 55.89560888999995l180.04764445 90.02325333v147.22616889l-180.04764445-76.89443556v-160.35612444zM511.54147555 583.84952889l206.77404445 88.61696-206.77404445 88.61696-206.77404444-88.61696 206.77404444-88.61696zM541.54808889 406.14456889l180.04650666 77.36547556v124.71864888l-180.04650666-76.89443555v-125.18855111zM751.60234667 268.76700444999994l189.42407111 81.11331555-189.42407111 81.11672889-189.42293334-81.11672889 189.42293334-81.11331555zM781.61237333 55.89560888999995l180.04536889 90.02325333v147.22616889l-180.04536889-76.89443556v-160.35612444z"  horiz-adv-x="1024" />

    
    <glyph glyph-name="kehuguanli" unicode="&#58989;" d="M319.999 704.001c0 106.04 85.962 192 192 192 106.04 0 192-85.96 192-192 0-106.037-85.96-192-192-192C405.961 512.001 319.999 597.963 319.999 704.001zM768.078 448.001l-35.425 0L533.549 43.757l74.45 372.244-96 96-96-96 74.45-372.244L291.347 448.001l-35.422 0C128 448.001 128 362.016 128 256.002l0-319.999 767.998 0L895.998 256.002C895.998 362.016 895.998 448.001 768.078 448.001z"  horiz-adv-x="1024" />

    
    <glyph glyph-name="moban" unicode="&#58961;" d="M896 768l0-768L128 0 128 768 896 768M1024 896 0 896l0-1024 1024 0L1024 896 1024 896zM128 576l768 0 0-64-768 0 0 64ZM192 704l192 0 0-64-192 0 0 64ZM192 448l640 0 0-128-640 0 0 128ZM192 192l640 0 0-128-640 0 0 128Z"  horiz-adv-x="1024" />

    
    <glyph glyph-name="fuzhi" unicode="&#59042;" d="M780.8 576l-19.2 0L492.8 576C467.2 576 448 556.8 448 524.8l0-480C448 19.2 467.2 0 492.8 0l358.4 0c25.6 0 44.8 19.2 44.8 51.2l0 384L896 454.4 780.8 576zM870.4 57.6c0-19.2-12.8-38.4-32-38.4L505.6 19.2c-19.2 0-32 19.2-32 38.4L473.6 518.4c0 19.2 12.8 38.4 32 38.4l256 0 0-70.4c0-25.6 19.2-51.2 44.8-51.2l70.4 0L876.8 57.6zM819.2 454.4c-19.2 0-32 19.2-32 38.4L787.2 550.4l89.6-96L819.2 454.4zM793.6 384 544 384C537.6 384 537.6 377.6 537.6 371.2l0 0c0-6.4 6.4-12.8 12.8-12.8l243.2 0c6.4 0 12.8 6.4 12.8 12.8l0 0C800 377.6 800 384 793.6 384zM793.6 275.2 544 275.2c-6.4 0-12.8-6.4-12.8-12.8l0 0c0-6.4 6.4-12.8 12.8-12.8l243.2 0c6.4 0 12.8 6.4 12.8 12.8l0 0C800 268.8 800 275.2 793.6 275.2zM659.2 166.4 544 166.4c-6.4 0-12.8-6.4-12.8-12.8l0 0c0-6.4 6.4-12.8 12.8-12.8l108.8 0c6.4 0 12.8 6.4 12.8 12.8l0 0C672 166.4 665.6 166.4 659.2 166.4zM230.4 358.4c-6.4 0-12.8-6.4-12.8-12.8l0 0c0-6.4 6.4-12.8 12.8-12.8l108.8 0c6.4 0 12.8 6.4 12.8 12.8l0 0c0 6.4-6.4 12.8-12.8 12.8L230.4 358.4zM217.6 454.4 217.6 454.4c0-6.4 6.4-12.8 12.8-12.8l192 0L422.4 467.2l-192 0C224 467.2 217.6 460.8 217.6 454.4zM217.6 563.2 217.6 563.2c0-6.4 6.4-12.8 12.8-12.8l192 0c0 6.4 6.4 19.2 12.8 25.6L230.4 576C224 576 217.6 569.6 217.6 563.2zM486.4 620.8l70.4 0 0-32L576 588.8 576 620.8 576 646.4 467.2 768 441.6 768 172.8 768C147.2 768 128 742.4 128 716.8l0-480C128 211.2 147.2 192 172.8 192l249.6 0 0 25.6L185.6 217.6c-19.2 0-32 19.2-32 38.4L153.6 704c0 19.2 12.8 38.4 32 38.4l256 0 0-70.4C441.6 646.4 460.8 620.8 486.4 620.8zM467.2 742.4l89.6-96L499.2 646.4c-19.2 0-32 19.2-32 38.4L467.2 742.4z"  horiz-adv-x="1024" />

    
    <glyph glyph-name="kuaidi" unicode="&#58963;" d="M805.82104178 188.07395783000004c-54.09852189 0-97.94034688-43.85112747-97.94034688-97.96243911 0-54.11014997 43.84066219-97.9612763 97.94034688-97.9612763 54.09735907 0 97.93918407 43.85112747 97.93918407 97.9612763C903.75906304 144.22399316999997 859.91840085 188.07512064000002 805.82104178 188.07395783000004zM991.29504313 423.94890809L903.75906304 579.92487936c-17.90299933 21.5819685-29.99220338 39.18497565-58.7635109 39.18497565L707.87953209 619.10985501 707.87953209 736.66594475c0 21.5819685-17.59835591 39.18381283-39.17567431 39.18381283L41.88726386 775.84975872C20.30994659 775.84975872 2.71159069 758.24791325 2.71159069 736.66594475l0-587.77463694c0-21.58429411 17.59835591-39.18613845 39.1756743-39.18613846l78.12112157 0C129.61509945 177.21030200999996 187.2309669 229.4774784 257.35579534 229.4774784S385.09765405 177.21030200999996 394.70320526 109.70516935l273.76926379 0.03953436c9.64159715 67.49931861 67.25746461 119.73277469 137.34857273 119.73277469 70.12599125 0 127.74069589-52.2683392 137.34740992-119.77230905l38.94544725 0C1003.69005341 109.70516935 1021.28840931 127.30701368999996 1021.28840931 148.89014498999995c0 0 0 158.80380075 0 195.92487936C1021.28724765 381.93494016 991.29504313 423.94890809 991.29504313 423.94890809zM747.05636807 344.81502435000004L747.05636807 540.73990371l95.834591 0c6.31145586 0 15.07516985-9.26021177 15.07516986-9.26021176l82.48146716-153.37371648c7.30561422-10.75203186 15.22749099-23.49587001 15.22749098-33.29095112L747.05636807 344.81502435000004zM257.35579534 188.07395783000004c-54.09852189 0-97.94034688-43.85112747-97.94034688-97.96243911C159.41661013 36.00136874999998 203.25843627-7.849758719999954 257.35579534-7.849758719999954s97.94034688 43.85112747 97.94034688 97.9612763C355.29614222 144.22399316999997 311.45315442 188.07512064000002 257.35579534 188.07395783000004z"  horiz-adv-x="1024" />

    
    <glyph glyph-name="icon-xiankuang" unicode="&#58988;" d="M904.504 100.349v570.567c32.463 10.87 55.862 41.503 55.862 77.624 0 45.213-36.648 81.863-81.864 81.863-35.722 0-66.084-22.89-77.263-54.798h-575.089c-11.178 31.908-41.538 54.799-77.263 54.799-45.214 0-81.864-36.652-81.864-81.864 0-35.53 22.638-65.762 54.271-77.087v-571.642c-31.633-11.325-54.271-41.555-54.271-77.085 0-45.213 36.653-81.864 81.864-81.864 34.496 0 63.982 21.342 76.037 51.533h577.544c12.056-30.191 41.546-51.533 76.036-51.533 45.218 0 81.864 36.652 81.864 81.864-0.002 36.121-23.401 66.753-55.864 77.623zM799.321 43.559h-571.254c-7.228 27.548-28.448 49.415-55.61 57.57v569.005c26.078 7.829 46.683 28.301 54.682 54.306h573.109c7.835-25.473 27.768-45.634 53.090-53.809v-570c-26.395-8.519-46.931-30.066-54.018-57.073z"  horiz-adv-x="1024" />

    
    <glyph glyph-name="shangpinduihuan" unicode="&#58880;" d="M872 63.181714v-76.162285c0-3.437714-1.259429-6.413714-3.769143-8.923429-2.509714-2.512-5.485714-3.769143-8.923428-3.769143H199.179429v-76.162286c0-3.437714-1.254857-6.413714-3.769143-8.923428-2.512-2.512-5.488-3.769143-8.925715-3.769143-3.172571 0-6.347429 1.323429-9.52 3.965714L50.422857 16.372571c-2.379429 2.381714-3.570286 5.289143-3.570286 8.729143 0 3.702857 1.190857 6.740571 3.570286 9.122286l126.939429 126.939429c2.381714 2.377143 5.421714 3.570286 9.124571 3.570285 3.435429 0 6.413714-1.254857 8.925714-3.769143 2.514286-2.512 3.769143-5.485714 3.769143-8.923428v-76.162286h660.128c3.437714 0 6.416-1.254857 8.923429-3.769143s3.766857-5.490286 3.766857-8.928zM981.730286 737.131429c0-3.700571-1.190857-6.745143-3.570286-9.124572l-126.939429-126.939428c-2.381714-2.377143-5.421714-3.570286-9.122285-3.570286-3.437714 0-6.413714 1.257143-8.925715 3.769143s-3.769143 5.485714-3.769142 8.923428V686.354286H169.266286c-3.435429 0-6.411429 1.259429-8.923429 3.766857-2.514286 2.516571-3.769143 5.488-3.769143 8.925714V775.211429c0 3.437714 1.254857 6.413714 3.769143 8.923428 2.512 2.516571 5.488 3.769143 8.923429 3.769143h660.134857V864.070857c0 3.702857 1.190857 6.745143 3.572571 9.124572 2.381714 2.379429 5.419429 3.570286 9.124572 3.570285 3.174857 0 6.345143-1.321143 9.517714-3.968l126.544-126.541714c2.379429-2.384 3.570286-5.421714 3.570286-9.124571zM513.181714 221.177143l-73.833143 70.809143 51.474286 146.969143-51.474286 69.177142h147.668572l-51.474286-69.177142 51.474286-146.969143-73.835429-70.809143zM512 612.736c-129.184 0-233.906286-104.722286-233.906286-233.906286S382.816 144.923429 512 144.923429s233.906286 104.722286 233.906286 233.906285S641.184 612.736 512 612.736z"  horiz-adv-x="1024" />

    
    <glyph glyph-name="chexiao" unicode="&#59033;" d="M135.168 619.52h462.848c176.128 0 317.44-141.312 317.44-317.44s-141.312-317.44-317.44-317.44H389.12c-12.288 0-20.48-8.192-20.48-20.48s8.192-20.48 20.48-20.48h208.896c198.656 0 358.4 159.744 358.4 358.4s-159.744 358.4-358.4 358.4h-462.848l139.264 139.264c8.192 8.192 8.192 20.48 0 28.672-8.192 8.192-20.48 8.192-28.672 0l-174.08-174.08c-8.192-8.192-8.192-20.48 0-28.672l174.08-174.08c8.192-8.192 20.48-8.192 28.672 0 8.192 8.192 8.192 20.48 0 28.672l-139.264 139.264z"  horiz-adv-x="1024" />

    
    <glyph glyph-name="biaoge" unicode="&#59061;" d="M135.168 404.48h348.16v389.12h-266.24c-45.056 0-81.92-36.864-81.92-81.92v-307.2z m0-40.96v-307.2c0-45.056 36.864-81.92 81.92-81.92h266.24v389.12h-348.16z m389.12-389.12h266.24c45.056 0 81.92 36.864 81.92 81.92v307.2h-348.16v-389.12z m348.16 430.08v116.736c0 12.288 8.192 20.48 20.48 20.48s20.48-8.192 20.48-20.48V56.32c0-67.584-55.296-122.88-122.88-122.88h-573.44c-67.584 0-122.88 55.296-122.88 122.88v655.36c0 67.584 55.296 122.88 122.88 122.88h573.44c67.584 0 122.88-55.296 122.88-122.88v-18.432c0-12.288-8.192-20.48-20.48-20.48s-20.48 8.192-20.48 20.48v18.432c0 45.056-36.864 81.92-81.92 81.92h-266.24v-389.12h348.16z"  horiz-adv-x="1024" />

    
    <glyph glyph-name="shangpinzhongliangluru" unicode="&#58960;" d="M524.02176 739.99246222l271.92433778-222.90318222a34.13447111 34.13447111 0 0 1 48.03697777 4.75818667l42.72128 52.11704888c43.74869333 53.37088 35.92192 132.38499555-17.44896 176.13482667L738.11854222 857.59431111c-22.31523555 18.29319111-50.47409778 28.36707555-79.28945777 28.36707556-37.67864889 0-72.97820445-16.69916445-96.84423112-45.81603556l-42.72128-52.11704889c-11.95121778-14.57834667-9.82016-36.08576 4.75818667-48.03584zM925.75061333-45.355235549999975l-624.91989333 0.16611555 87.83189333 22.14684445a34.13674667 34.13674667 0 0 1 18.05198222 11.45856l360.08846223 439.27893333a34.13560889 34.13560889 0 0 1-4.75932445 48.03697777L490.12167111 698.63537778c-14.57834667 11.95008-36.08689778 9.81902222-48.03697778-4.75932445L81.99509333 254.59825778000004a34.12992 34.12992 0 0 1-7.69365333-19.94979556l-14.62727111-295.15889777c-0.17180445-3.47363555 0.19569778-6.90631111 1.04220444-10.1944889a34.12992 34.12992 0 0 1-1.08316444-8.55267555c-0.00455111-18.85070222 15.27239111-34.13674667 34.12423111-34.14243555l831.97610667-0.2207289h0.00910222c18.84615111 0 34.12764445 15.27694222 34.13333333 34.12423112 0.00568889 18.84956445-15.27352889 34.13674667-34.12536889 34.14129778z"  horiz-adv-x="1024" />

    
    <glyph glyph-name="suoding" unicode="&#58990;" d="M832.8 448.2v64.2c0 176.5-144.4 320.8-320.8 320.8S191.2 688.8 191.2 512.3v-64.2c-35.3 0-64.2-28.9-64.2-64.2v-385c0-35.3 28.9-64.2 64.2-64.2h641.7c35.3 0 64.2 28.9 64.2 64.2V384c-0.1 35.3-29 64.2-64.3 64.2z m-577.5 64.1C255.3 653.9 370.5 769 512 769s256.7-115.1 256.7-256.7v-64.2H255.3v64.2zM832.8-1H191.2V384h641.7v-385z"  horiz-adv-x="1024" />

    
    <glyph glyph-name="danju-xiugai-tianchong" unicode="&#58964;" d="M546.133333 149.33333300000004H256c-12.8 0-21.333333-8.533333-21.333333-21.333333s8.533333-21.333333 21.333333-21.333333h270.933333c-8.533333-27.733333-14.933333-55.466667-14.933333-85.333334 0-55.466667 17.066667-106.666667 49.066667-149.333333H170.666667c-36.266667 0-64 27.733333-64 64V704c0 36.266667 27.733333 64 64 64h177.066666c19.2 0 36.266667 12.8 40.533334 32 14.933333 55.466667 64 96 123.733333 96s108.8-40.533333 123.733333-96c4.266667-19.2 21.333333-32 40.533334-32H853.333333c36.266667 0 64-27.733333 64-64v-475.733333c-42.666667 29.866667-93.866667 49.066667-149.333333 49.066666-93.866667 0-177.066667-51.2-221.866667-128zM256 298.66666699999996h426.666667c12.8 0 21.333333 8.533333 21.333333 21.333333s-8.533333 21.333333-21.333333 21.333333H256c-12.8 0-21.333333-8.533333-21.333333-21.333333s8.533333-21.333333 21.333333-21.333333zM554.666667 768h-85.333334c-12.8 0-21.333333-8.533333-21.333333-21.333333s8.533333-21.333333 21.333333-21.333334h85.333334c12.8 0 21.333333 8.533333 21.333333 21.333334s-8.533333 21.333333-21.333333 21.333333z m234.666666-256c0 12.8-8.533333 21.333333-21.333333 21.333333H256c-12.8 0-21.333333-8.533333-21.333333-21.333333s8.533333-21.333333 21.333333-21.333333h512c12.8 0 21.333333 8.533333 21.333333 21.333333z m-40.533333-369.066667c6.4 10.666667 19.2 12.8 29.866667 8.533334 10.666667-6.4 12.8-19.2 8.533333-29.866667l-128-221.866667c-6.4-10.666667-19.2-12.8-29.866667-8.533333-10.666667 6.4-12.8 19.2-8.533333 29.866667l128 221.866666zM725.333333-64c12.8 0 21.333333-8.533333 21.333334-21.333333s-8.533333-21.333333-21.333334-21.333334-21.333333 8.533333-21.333333 21.333334 8.533333 21.333333 21.333333 21.333333z m85.333334 0c12.8 0 21.333333-8.533333 21.333333-21.333333s-8.533333-21.333333-21.333333-21.333334-21.333333 8.533333-21.333334 21.333334 8.533333 21.333333 21.333334 21.333333z m85.333333 0c12.8 0 21.333333-8.533333 21.333333-21.333333s-8.533333-21.333333-21.333333-21.333334-21.333333 8.533333-21.333333 21.333334 8.533333 21.333333 21.333333 21.333333z"  horiz-adv-x="1024" />

    
    <glyph glyph-name="yincangmima" unicode="&#58985;" d="M228.41 697.73a21.33 21.33 0 0 1-30.17-30.17l56.46-56.46c-83.6-50.76-150.66-126-189.08-219a21.33 21.33 0 0 1 0-16.33C138.56 199.36 313.78 85.32 512 85.32a496.64 496.64 0 0 1 217.89 50.61l65.69-65.69a21.33 21.33 0 1 1 30.17 30.17z m194.68-255l147.63-147.64a106.5 106.5 0 0 0-147.63 147.63zM512 128c-177.8 0-335.17 100.15-403.49 256 36.81 84 100.12 150.76 178 195.34L392.81 473c-18.68-24.93-30.15-55.54-30.15-89 0-82.33 67-149.33 149.33-149.33 33.47 0 64.08 11.47 89 30.15l96.21-96.21C640.44 143.1 578 128 512 128zM958.37 392.15C885.43 568.61 710.2 682.65 512 682.65a502.15 502.15 0 0 1-157.66-25.45l34.22-34.2A461 461 0 0 0 512 640c177.79 0 335.17-100.17 403.48-256-28.33-64.63-72.59-118.93-126.66-161.23l30.88-30.88C879.76 240 928 302.38 958.37 375.82a21.33 21.33 0 0 1 0 16.33zM617.66 393.89l40.47-40.47a149.27 149.27 0 0 1 3.2 30.56c0 82.33-67 149.33-149.33 149.33a149.19 149.19 0 0 1-30.57-3.2l40.47-40.47a106.11 106.11 0 0 0 95.76-95.75z"  horiz-adv-x="1024" />

    
    <glyph glyph-name="fenlei_guanli" unicode="&#58965;" d="M472.615385 423.384615H0V896h472.615385zM157.538462 580.9230769999999h157.538461V738.461538H157.538462zM472.615385-128H0V344.61538499999995h472.615385z m-315.076923 157.538462h157.538461V187.07692299999997H157.538462zM787.692308 895.684923l236.150154-236.150154L787.692308 423.305846 551.542154 659.534769zM1024-128H551.384615V344.61538499999995h472.615385z m-315.076923 157.538462h157.538461V187.07692299999997H708.923077z"  horiz-adv-x="1024" />

    
    <glyph glyph-name="dingdanliebiao" unicode="&#58888;" d="M620.672 675.488h-236.576a56.8 56.8 0 0 0-56.576 56.576V743.36c0 31.072 25.376 56.576 56.576 56.576H620.8c31.072 0 56.576-25.504 56.576-56.576v-11.328a56.96 56.96 0 0 0-56.704-56.576zM620.672 675.488h-236.576a56.8 56.8 0 0 0-56.576 56.576V743.36c0 31.072 25.376 56.576 56.576 56.576H620.8c31.072 0 56.576-25.504 56.576-56.576v-11.328a56.96 56.96 0 0 0-56.704-56.576zM717.056 449.92c0-19.712-16.064-35.744-35.712-35.744H323.2a35.776 35.776 0 0 0-35.712 35.712v5.152c0 19.68 16.032 35.712 35.712 35.712h358.08c19.68 0 35.744-16 35.744-35.712v-5.12z m0-148.16c0-19.648-16.064-35.712-35.712-35.712H323.2a35.776 35.776 0 0 0-35.712 35.712v5.184c0 19.648 16.032 35.712 35.712 35.712h358.08c19.68 0 35.744-16.064 35.744-35.712v-5.184z m0-148.32c0-19.68-16.064-35.712-35.712-35.712H323.2a35.776 35.776 0 0 0-35.712 35.712v5.152c0 19.68 16.032 35.712 35.712 35.712h358.08c19.68 0 35.744-16.032 35.744-35.712v-5.152z m92.928 578.496h-92.608a25.696 25.696 0 0 1-24.384-18.112 81.6 81.6 0 0 0-78.016-57.376h-225.28A81.952 81.952 0 0 0 311.68 713.824a25.536 25.536 0 0 1-24.384 18.112H194.688c-18.912 0-34.304-15.36-34.304-34.24v-702.912c0-18.912 15.392-34.304 34.304-34.304h615.296c18.912 0 34.304 15.392 34.304 34.304V697.664a34.24 34.24 0 0 1-34.304 34.272z"  horiz-adv-x="1024" />

    
    <glyph glyph-name="daifahuo" unicode="&#58889;" d="M919.744 320.672l-3.36 7.072c-1.376 3.936-3.168 7.68-5.344 11.008l-80.576 169.664-29.472 53.44H682.24V621.248c0 27.328-12.256 39.584-39.616 39.584h-59.36c1.6-10.016 0.64-16.416 0.64-26.592 0-31.072-6.144-60.768-18.24-88.288a227.36 227.36 0 0 0-48.512-70.976 225.568 225.568 0 0 0-159.616-65.44c-31.104 0-60.8 5.888-88.32 17.504a223.808 223.808 0 0 0-72.096 47.936 237.152 237.152 0 0 0-48.512 70.784 218.56 218.56 0 0 0-18.24 88.48c0 1.952 0 4.128 0.224 6.08-1.792-4.128-2.592-8.64-2.592-13.376v-455.872c0-18.08 9.92-33.824 24.352-42.464a151.808 151.808 0 0 0 137.248 86.304c63.36 0 112.544-33.856 135.296-88.512h158.368c22.752 54.24 68.736 87.744 131.52 87.744 62.784 0 103.04-33.504 125.76-87.744h39.616c27.328 0 38.592 17.152 38.592 44.288v141.92c0 2.368-0.192 4.736-0.576 7.072l1.6 0.992z m-257.312 43.232v138.56h98.976l39.584-138.56H662.4z m54.56-193.024a101.568 101.568 0 0 1-101.792-101.248 101.568 101.568 0 0 1 101.76-101.248c56.224 0 101.824 45.44 101.824 101.248a101.6 101.6 0 0 1-101.792 101.248z m-424.224 0a101.568 101.568 0 0 1-101.792-101.248 101.568 101.568 0 0 1 101.792-101.248c56.256 0 101.984 45.44 101.984 101.248 0 55.84-45.76 101.248-101.984 101.248zM239.104 516.736a166.848 166.848 0 0 1 118.464-48.192 164.8 164.8 0 0 1 64.48 12.8 167.36 167.36 0 0 1 89.184 88.128 159.584 159.584 0 0 1 13.248 64.8c0 22.592-4.448 43.968-13.248 64.064a171.936 171.936 0 0 1-36.064 52.704 173.536 173.536 0 0 1-53.12 35.84A160.864 160.864 0 0 1 357.568 800a162.24 162.24 0 0 1-65.28-13.12 172.928 172.928 0 0 1-53.184-35.84 170.368 170.368 0 0 1-36-52.704 156.704 156.704 0 0 1-13.28-64.064c0-23.104 4.416-44.704 13.28-64.8a170.368 170.368 0 0 1 36-52.736z m86.848 243.072h39.584v-118.784l98.88-0.096 0.096-19.68v-19.808l-138.528 0.224-0.032 158.144z"  horiz-adv-x="1024" />

    
    <glyph glyph-name="kucunzongzhang" unicode="&#58891;" d="M532.672 419.168V800c202.88-17.216 363.616-178.624 380.192-380.832H532.672zM480.32 746.4h-1.92v-381.44h382.112v1.888-1.92c0-210.528-170.944-381.472-382.08-381.472-211.2 0-382.144 170.944-382.144 381.472S267.296 746.4 478.432 746.4h1.92z"  horiz-adv-x="1024" />

    
    <glyph glyph-name="caigouhuizong" unicode="&#58892;" d="M913.088 108a93.184 93.184 0 0 0-93.184-93.184c-2.464 0-4.672 0.544-7.008 0.704l-607.872-0.416a97.472 97.472 0 0 0-97.44 97.44V688.864A97.472 97.472 0 0 0 205.024 786.24H669.76a97.472 97.472 0 0 0 97.44-97.44v-348.736h145.888v-232.096z m-93.056-44.608a44.48 44.48 0 0 1 44.48 44.48v183.488h-88.96v-183.36c0-24.544 19.904-44.608 44.48-44.608z m-176.352 366.72H234.816c-22.912 0-41.6-18.656-41.6-41.568s18.688-41.6 41.6-41.6h408.864a41.568 41.568 0 1 1 0 83.2zM239.36 528.576h286.144a45.12 45.12 0 1 1 0 90.304H239.36a45.184 45.184 0 0 1 0-90.304z m404.32-272.032H234.816a41.568 41.568 0 1 1 0-83.2h408.864c22.912 0 41.6 18.688 41.6 41.6 0 23.072-18.56 41.6-41.6 41.6z"  horiz-adv-x="1024" />

    
    <glyph glyph-name="chukutongji" unicode="&#58893;" d="M902.272 363.392L770.56 712.832h-141.984v-26.912h108.352l88.864-319.104h-190.944L499.2 241.28l-144.064 125.504H166.24l88.832 319.104h110.464v26.88H225.664L96.224 358.432h0.736a12.576 12.576 0 0 1-0.736-4.192v-358.592c0-6.912 5.6-12.544 12.512-12.576H893.76a12.544 12.544 0 0 1 12.544 12.576V354.24a12.576 12.576 0 0 1-4 9.152zM562.336 637.12h72.416L497.056 800l-133.824-162.88h72.384v-176.416h126.72V637.12z m-126.72-217.12h126.72v22.592h-126.72v-22.592zM200.992 41.856l-21.888 28.928 202.624 153.248 87.552-115.776 228.032 149.696-43.776 57.92 127.104-17.664-17.664-127.104-43.776 57.92-256.96-171.616-87.584 115.776-173.664-131.328z"  horiz-adv-x="1024" />

    
    <glyph glyph-name="rukutongji" unicode="&#58894;" d="M902.272 363.392L770.56 712.832h-141.984v-26.912h108.352l88.864-319.104h-190.944L499.2 241.28l-144.064 125.504H166.24l88.832 319.104h110.464v26.88H225.664L96.224 358.432h0.736a12.576 12.576 0 0 1-0.736-4.192v-358.592c0-6.912 5.6-12.544 12.512-12.576H893.76a12.544 12.544 0 0 1 12.544 12.576V354.24a12.576 12.576 0 0 1-4 9.152z m-339.936 260.16h72.416l-137.696-162.88-133.824 162.88h72.384V800h126.72v-176.416z m-126.72-203.552h126.72v22.592h-126.72v-22.592zM200.992 41.856l-21.888 28.928 202.624 153.248 87.552-115.776 228.032 149.696-43.776 57.92 127.104-17.664-17.664-127.104-43.776 57.92-256.96-171.616-87.584 115.776-173.664-131.328z"  horiz-adv-x="1024" />

    
    <glyph glyph-name="kucunmingxizhang" unicode="&#58895;" d="M891.36 3.2l-95.2 95.232a201.92 201.92 0 0 1 33.6 112c0 117.6-95.2 207.168-207.2 207.168-117.6 5.6-207.2-89.6-207.2-201.6 0-117.568 95.2-207.168 207.2-207.168 44.8 0 84 11.2 112 33.6l95.2-95.2c11.2-11.2 33.6-11.2 44.8 0l16.8 16.8c11.2 5.6 11.2 28 0 39.2z m-156.8 156.8c-11.2-27.968-33.6-44.8-61.6-61.568-16.8-5.6-33.6-11.2-56-11.2-67.2 0-123.2 56-123.2 123.2s56 123.2 123.2 123.2 123.2-56 123.2-123.2c5.6-16.8 0-33.6-5.6-50.4z m-386.4 16.832H247.36c-16.8 0-33.6 16.8-33.6 33.6s16.8 33.6 33.6 33.6h100.8c0 28 11.2 56 22.4 84H247.36c-16.8 0-33.6 16.768-33.6 33.6 0 16.768 16.8 33.6 33.6 33.6h162.4c33.6 39.168 72.8 67.2 117.6 83.968H247.36c-16.8 0-33.6 16.8-33.6 33.6s16.8 33.6 33.6 33.6h487.2c16.8 0 33.6-16.8 33.6-33.6s-16.8-33.6-33.6-33.6h-22.4c84-28 151.2-100.8 173.6-190.4v448C885.76 787.2 840.96 832 790.56 832H196.96c-56 0-100.8-44.8-100.8-95.2v-688.768c0-50.4 44.8-95.2 95.2-95.2h347.2c-95.2 28-173.6 117.6-190.4 224zM247.36 686.4h487.2c16.8 0 33.6-16.8 33.6-33.6s-16.8-33.6-33.6-33.6H247.36c-16.8 0-33.6 16.8-33.6 33.6s16.8 33.6 33.6 33.6z"  horiz-adv-x="1024" />

    
    <glyph glyph-name="fenleihuizong" unicode="&#58896;" d="M118.88 573.6l345.6 182.976c30.464 15.232 48.256 15.232 76.192 0l345.6-182.976c25.408-15.232 25.408-63.52 0-76.224l-345.6-155.008c-33.024-15.264-45.728-15.264-76.224 0l-345.6 155.008c-27.936 12.704-25.376 58.432 0 76.224zM886.24 169.6l-345.568-152.448c-33.024-15.264-45.728-15.264-76.224 0l-345.6 152.448C101.12 177.216 96 212.8 96 233.088c22.88-15.232 53.376-27.936 53.376-27.936l353.184-160.096s17.792 7.616 25.408 10.176c109.28 50.816 327.808 149.92 327.808 149.92 0 2.56 30.496 17.792 53.376 27.968 0-17.792-5.12-55.904-22.88-63.552z m0 175.36l-345.568-155.008c-33.024-15.264-45.728-15.264-76.224 0l-345.6 154.976C101.12 355.072 96 390.656 96 410.976c22.88-15.232 53.376-27.936 53.376-27.936l353.184-162.656 353.216 162.656s30.496 17.76 53.376 27.936c0-20.32-5.12-58.432-22.88-66.08z"  horiz-adv-x="1024" />

    
    <glyph glyph-name="caigoujinhuo" unicode="&#58897;" d="M807.52 20.736H228.96l-68.16 273.12 67.84 294.592h163.648v-42.08h-130.24l-53.28-231.296h173.056l63.008-84.096h146.88l62.976 84.096h173.056L774.4 546.368h-130.24V588.48h163.648l67.84-294.592-68.16-273.12z m-94.016 441.536l-195.232-130.432-195.296 130.432h90.336V735.616h209.888v-273.344h90.304z"  horiz-adv-x="1024" />

    
    <glyph glyph-name="yunfeiduizhang" unicode="&#58898;" d="M0 719.136v-566.08h53.824a131.936 131.936 0 0 0 127.168 96.16c60.768 0 111.36-41.12 127.2-96.16h324.992V767.872H48.736c-26.56 0-48.704-22.144-48.704-48.736z m192.384-267.68h95.232v43.2H192.384v51.648h84.256L192.544 672.8H255.36c1.088-2.24 63.616-95.04 63.616-95.04l63.52 95.04 62.816-0.128-84.64-126.4h84.704v-51.616h-94.912v-43.2h94.912v-50.432h-94.912v-96.224H287.616v96.224H192.384v50.432zM180.992 177.728a84.128 84.128 0 0 1-84.16-84.16 84.128 84.128 0 1 1 168.32 0c0.64 46.176-37.312 84.16-84.16 84.16zM856.832 177.728a84.128 84.128 0 0 1-84.16-84.16 84.128 84.128 0 0 1 84.16-84.16 84.128 84.128 0 0 1 84.16 84.16 84.544 84.544 0 0 1-84.16 84.16zM772.032 659.904h-75.2v-506.88h32.16a132.672 132.672 0 0 0 127.84 96.192 133.44 133.44 0 0 0 127.808-96.16h29.12v265.76c0 132.896-108.224 241.088-241.728 241.088z m168.96-289.184h-168.96v193.024h24.032a144.896 144.896 0 0 0 144.928-144.928v-48.096z"  horiz-adv-x="1024" />

    
    <glyph glyph-name="caigoutuihuo" unicode="&#58899;" d="M400.32 322.976c7.872-4.064 16.608-6.208 25.44-6.24H755.84c21.312 0 40.736 12.128 50.048 31.264l137.856 283.072a27.808 27.808 0 0 1-25.024 40H279.424L213.984 736H96v-55.584h95.04l45.312-45.312a27.808 27.808 0 0 1 1.408-4.032l127.296-260.96-56.704-85.344A59.744 59.744 0 0 1 358.08 192h495.04v55.552H358.08a4.16 4.16 0 0 0-3.456 6.528l45.728 68.928z m190.4 281.568a111.168 111.168 0 1 0 0-222.368 111.168 111.168 0 0 0 0 222.368z m-207.2-432.64a80.448 80.448 0 1 1 0-160.896 80.448 80.448 0 0 1 0 160.928z m389.12 0a80.448 80.448 0 1 1 0-160.896 80.448 80.448 0 0 1 0 160.928z m-247.52 256.288c5.44-5.408 14.176-5.408 19.616 0l45.984 45.984 46.016-45.984a13.888 13.888 0 0 1 19.584 19.584l-46.144 46.144 46.016 45.984a13.888 13.888 0 0 1-19.616 19.616l-45.856-45.856-45.984 45.984a13.888 13.888 0 1 1-19.616-19.584l46.016-46.016-46.016-45.984a13.888 13.888 0 0 1 0-19.872z"  horiz-adv-x="1024" />

    
    <glyph glyph-name="wodezhanghu" unicode="&#58900;" d="M924.86912 768c37.888 0 68.256-9.696 90.944-29.024 22.688-19.328 34.016-48.736 34.016-88.096v-519.84c0-16.864-3.072-32.8-9.28-47.744-6.24-15.04-14.816-28.096-25.664-39.36-10.816-11.2-23.616-20.096-38.208-26.656a111.584 111.584 0 0 0-46.208-9.792H117.54112c-16.16 0-31.36 3.168-45.696 9.376a122.752 122.752 0 0 0-37.312 24.832 116.288 116.288 0 0 0-25.12 36.096A102.848 102.848 0 0 0 0.00512 121.728V652.832c0 33.728 10.24 61.312 30.752 82.88C51.30112 757.28 80.22912 768 117.44512 768h807.456zM262.02112 594.688a88.544 88.544 0 0 1-61.536-24.832 87.744 87.744 0 0 1-26.048-63.264c0-12.48 2.368-24 6.976-34.656A91.904 91.904 0 0 1 228.48512 424.64c10.528-4.704 21.76-7.04 33.504-7.04 13.088 0 25.056 2.336 35.872 7.04 10.848 4.704 20.224 11.04 28 19.2 7.776 8.064 14.016 17.472 18.592 28.096 4.704 10.624 6.976 22.176 6.976 34.656 0 25.632-8.384 46.72-25.152 63.264-16.768 16.544-38.208 24.832-64.288 24.832z m146.336-324.064c0 11.84-2.336 23.296-6.944 34.24a88.704 88.704 0 0 1-18.592 28.096 88.48 88.48 0 0 1-28 18.72 84.608 84.608 0 0 1-34.016 7.04H204.29312c-24.224 0-44.768-8.576-61.536-25.76a85.92 85.92 0 0 1-25.12-62.336v-88.096h290.848v88.096h-0.128zM840.96512 177.92c12.48 0 21.536 3.2 27.488 9.408a31.424 31.424 0 0 1 8.896 22.496 30.912 30.912 0 0 1-10.24 22.976c-6.848 6.56-16.448 9.824-28.928 9.824H560.32512c-12.48 0-21.76-3.264-28-9.824-6.24-6.528-9.28-14.176-9.28-22.976 0-8.8 3.04-16.256 9.28-22.496 6.24-6.24 15.232-9.408 27.072-9.408h281.568z m0.896 120.8c12.48 0 21.472 3.2 27.104 9.408a32.32 32.32 0 0 1 8.384 22.496c0 9.376-2.656 17.152-8 23.392-5.312 6.24-14.08 9.408-26.56 9.408h-285.216c-12.48 0-21.44-3.2-27.072-9.408a33.536 33.536 0 0 1-8.384-23.392c0-8.8 2.656-16.256 7.968-22.496 5.312-6.24 14.08-9.408 26.56-9.408h285.216z m0.96 118.976c9.28 0 17.344 3.168 24.192 9.376a29.248 29.248 0 0 1 10.24 22.496 25.216 25.216 0 0 1-10.24 21.056 38.336 38.336 0 0 1-24.224 7.968h-189.248c-9.28 0-17.28-2.656-23.808-8a25.824 25.824 0 0 1-9.824-21.024c0-8.8 3.264-16.256 9.824-22.496 6.528-6.208 14.4-9.376 23.808-9.376h189.248z"  horiz-adv-x="1056" />

    
    <glyph glyph-name="daifahuo1" unicode="&#58901;" d="M919.744 320.672l-3.36 7.072c-1.376 3.936-3.168 7.68-5.344 11.008l-80.576 169.664-29.472 53.44H682.24V621.248c0 27.328-12.256 39.584-39.616 39.584h-59.36c1.6-10.016 0.64-16.416 0.64-26.592 0-31.072-6.144-60.768-18.24-88.288a227.36 227.36 0 0 0-48.512-70.976 225.568 225.568 0 0 0-159.616-65.44c-31.104 0-60.8 5.888-88.32 17.504a223.808 223.808 0 0 0-72.096 47.936 237.152 237.152 0 0 0-48.512 70.784 218.56 218.56 0 0 0-18.24 88.48c0 1.952 0 4.128 0.224 6.08-1.792-4.128-2.592-8.64-2.592-13.376v-455.872c0-18.08 9.92-33.824 24.352-42.464a151.808 151.808 0 0 0 137.248 86.304c63.36 0 112.544-33.856 135.296-88.512h158.368c22.752 54.24 68.736 87.744 131.52 87.744 62.784 0 103.04-33.504 125.76-87.744h39.616c27.328 0 38.592 17.152 38.592 44.288v141.92c0 2.368-0.192 4.736-0.576 7.072l1.6 0.992z m-257.312 43.232v138.56h98.976l39.584-138.56H662.4z m54.56-193.024a101.568 101.568 0 0 1-101.792-101.248 101.568 101.568 0 0 1 101.76-101.248c56.224 0 101.824 45.44 101.824 101.248a101.6 101.6 0 0 1-101.792 101.248z m-424.224 0a101.568 101.568 0 0 1-101.792-101.248 101.568 101.568 0 0 1 101.792-101.248c56.256 0 101.984 45.44 101.984 101.248 0 55.84-45.76 101.248-101.984 101.248zM239.104 516.736a166.848 166.848 0 0 1 118.464-48.192 164.8 164.8 0 0 1 64.48 12.8 167.36 167.36 0 0 1 89.184 88.128 159.584 159.584 0 0 1 13.248 64.8c0 22.592-4.448 43.968-13.248 64.064a171.936 171.936 0 0 1-36.064 52.704 173.536 173.536 0 0 1-53.12 35.84A160.864 160.864 0 0 1 357.568 800a162.24 162.24 0 0 1-65.28-13.12 172.928 172.928 0 0 1-53.184-35.84 170.368 170.368 0 0 1-36-52.704 156.704 156.704 0 0 1-13.28-64.064c0-23.104 4.416-44.704 13.28-64.8a170.368 170.368 0 0 1 36-52.736z m86.848 243.072h39.584v-118.784l98.88-0.096 0.096-19.68v-19.808l-138.528 0.224-0.032 158.144z"  horiz-adv-x="1024" />

    
    <glyph glyph-name="dingdanliebiao1" unicode="&#58902;" d="M620.672 675.488h-236.576a56.8 56.8 0 0 0-56.576 56.576V743.36c0 31.072 25.376 56.576 56.576 56.576H620.8c31.072 0 56.576-25.504 56.576-56.576v-11.328a56.96 56.96 0 0 0-56.704-56.576zM620.672 675.488h-236.576a56.8 56.8 0 0 0-56.576 56.576V743.36c0 31.072 25.376 56.576 56.576 56.576H620.8c31.072 0 56.576-25.504 56.576-56.576v-11.328a56.96 56.96 0 0 0-56.704-56.576zM717.056 449.92c0-19.712-16.064-35.744-35.712-35.744H323.2a35.776 35.776 0 0 0-35.712 35.712v5.152c0 19.68 16.032 35.712 35.712 35.712h358.08c19.68 0 35.744-16 35.744-35.712v-5.12z m0-148.16c0-19.648-16.064-35.712-35.712-35.712H323.2a35.776 35.776 0 0 0-35.712 35.712v5.184c0 19.648 16.032 35.712 35.712 35.712h358.08c19.68 0 35.744-16.064 35.744-35.712v-5.184z m0-148.32c0-19.68-16.064-35.712-35.712-35.712H323.2a35.776 35.776 0 0 0-35.712 35.712v5.152c0 19.68 16.032 35.712 35.712 35.712h358.08c19.68 0 35.744-16.032 35.744-35.712v-5.152z m92.928 578.496h-92.608a25.696 25.696 0 0 1-24.384-18.112 81.6 81.6 0 0 0-78.016-57.376h-225.28A81.952 81.952 0 0 0 311.68 713.824a25.536 25.536 0 0 1-24.384 18.112H194.688c-18.912 0-34.304-15.36-34.304-34.24v-702.912c0-18.912 15.392-34.304 34.304-34.304h615.296c18.912 0 34.304 15.392 34.304 34.304V697.664a34.24 34.24 0 0 1-34.304 34.272z"  horiz-adv-x="1024" />

    
    <glyph glyph-name="chukudan" unicode="&#58904;" d="M763.52 704H287.264L192 513.504v-428.64h666.752V513.504L763.52 704zM355.296 656.384h340.192l68.032-119.072H287.264l68.032 119.04z m217.696-491.904v95.264h-238.112v95.264h238.112V450.24l142.88-142.88-142.88-142.88z"  horiz-adv-x="1024" />

    
    <glyph glyph-name="kucunchaxun" unicode="&#58905;" d="M760.64 671.776H284.896L192.16 519.04v-424.096h663.104v425.92L760.64 671.808zM343.136 619.36l362.08-0.128 63.68-120.512H278.528l64.64 120.64z"  horiz-adv-x="1024" />

    
    <glyph glyph-name="rukudan" unicode="&#58906;" d="M764.352 704H287.392L192 513.216v-429.28h667.744V513.216L764.384 704z m-238.464-540.352l-143.104 143.072h95.392v143.104h95.392v-143.104h95.392l-143.072-143.072zM355.52 656.288h340.704l68.096-119.232H287.392l68.16 119.232z"  horiz-adv-x="1024" />

    
    <glyph glyph-name="kucunpandian" unicode="&#58907;" d="M920.928 108.48h-64.384V697.088c0 25.376-20.48 38.912-45.824 38.912h-4.576c-25.344 0-54.208-13.536-54.208-38.912v-65.664h-59.744v5.216c0 21.856-17.728 39.584-39.616 39.584h-10.432c-21.888 0-39.584-17.728-39.616-39.584v-5.216h-89.632v5.216c0 21.856-17.728 39.584-39.584 39.584h-10.464c-21.888 0-39.616-17.728-39.616-39.584v-5.216h-14.944v5.216c0 21.856-17.728 39.584-39.584 39.584h-10.464c-21.856 0-39.584-17.728-39.584-39.584v-5.216H258.88V697.088C258.88 722.464 243.84 736 218.464 736h-4.576C188.48 736 154.304 736 154.304 697.088V108.48H103.68c-17.76 0-39.04-0.96-39.04-31.232v-4.576c0-17.76 0-38.912 39.04-38.912h817.28c17.728 0 25.216 21.152 25.216 38.912v4.576c0 17.76-7.488 31.232-25.248 31.232z m-168.96 0H258.88v104.576h44.8v-5.216c0-21.888 17.76-39.616 39.616-39.616h10.464c21.856 0 39.584 17.728 39.584 39.616v5.216h14.944v-5.216c0-21.888 17.728-39.616 39.584-39.616h10.464c21.856 0 39.584 17.728 39.584 39.616v5.216h89.664v-5.216a39.584 39.584 0 0 1 39.584-39.616h10.432c21.856 0 39.584 17.728 39.584 39.616v5.216h74.72v-104.576h0.032z m0 149.44h-74.72v5.184c0 21.856-17.728 39.584-39.616 39.616H627.2c-21.888 0-39.616-17.728-39.616-39.616v-5.216h-89.632v5.216c0 21.888-17.728 39.584-39.616 39.616h-10.464c-21.856 0-39.584-17.76-39.584-39.616v-5.216h-14.944v5.216c0 21.888-17.728 39.584-39.584 39.616h-10.464c-21.856 0-39.584-17.76-39.616-39.616v-5.216h-44.8v149.408h74.688v-5.248c0-21.856 17.728-39.584 39.616-39.584h10.432c21.856 0 39.584 17.728 39.584 39.584v5.248h89.664v-5.248c0-21.856 17.728-39.584 39.584-39.584h10.464c21.856 0 39.584 17.728 39.584 39.584v5.248h149.408v-149.44h0.032v0.032z m0 194.208h-149.44v5.216c0 21.856-17.728 39.584-39.584 39.584h-10.464c-21.856 0-39.584-17.728-39.584-39.584v-5.216h-89.664v5.216c0 21.856-17.728 39.584-39.584 39.584h-10.464c-21.856 0-39.584-17.728-39.584-39.584v-5.216H258.88V586.56h59.776v-5.216c0-21.888 17.728-39.616 39.584-39.616h10.464c21.856 0 39.584 17.728 39.584 39.616V586.56h14.944v-5.216c0-21.888 17.728-39.616 39.584-39.616h10.464c21.856 0 39.584 17.728 39.584 39.616V586.56h89.632v-5.216c0-21.888 17.728-39.616 39.584-39.616h10.464c21.856 0 39.584 17.728 39.584 39.616V586.56h59.776v-134.464h0.032z"  horiz-adv-x="1024" />

    
    <glyph glyph-name="qichukucun" unicode="&#58908;" d="M464.384 779.392V895.968L0 773.824v-589.312l464.384-122.144V178.88h342.56V779.392H464.384z m0-437.76h86.912v-72.96h-86.912v73.024-0.064z m0 117.92h86.912v-72.896h-86.912v72.96-0.064z m0 44.928h86.912V577.472h-86.912V504.48z m0 117.856h86.912v72.96h-86.912v-72.96zM605.664 268.8h108.416v72.96h-108.416v-72.96z m0 190.752h108.416v-72.896h-108.416v72.96-0.064z m0 44.928h108.416V577.472h-108.416V504.48z m0 117.856h108.416v72.96h-108.416v-72.96z m-426.88-20.416l56.384-86.144 58.944 91.52 48.416 2.24-81.856-126.176 87.872-135.776-52.928 2.496-61.92 99.072-62.912-93.184-49.92 2.304 88.352 124.864-82.4 116.288 51.968 2.368V601.92zM706.56 41.28h192.224v71.264h-192.224v-71.36 0.096z m-91.84 34.336l91.84 83.68v-162.144l-91.84 78.464z"  horiz-adv-x="1024" />

    
    <glyph glyph-name="kucunyujing" unicode="&#58909;" d="M911.296 489.664L529.92 757.408a40.96 40.96 0 0 1-9.472 6.784c-10.816 6.72-27.04 2.688-35.136-9.472L106.624 488.288c-12.16-8.096-13.504-25.696-4.064-39.2 9.472-13.536 27.072-17.6 37.888-9.472l25.696 18.912v-439.52c0-16.224 13.504-29.76 29.76-29.76 16.192 0 29.728 13.536 29.728 29.76V500.48l284 198.784 286.72-201.504v-477.376c0-16.256 13.504-29.76 29.76-29.76 16.192 0 29.728 13.536 29.728 29.76V454.496l20.288-13.536c12.16-8.096 28.384-4.064 37.856 9.472 9.472 13.536 8.128 31.104-2.688 39.232zM275.904 134.656l226.496 392.32 226.496-392.32H275.904z m521.6-145.376h-601.6l630.176 1.344-0.128 54.464-9.504 486.4-324.864 184.96-277.44-208.704-21.344-498.592 604.704-19.872zM489.984 227.52s-8.992 45.92-16 95.616c-7.008 49.92-6.88 101.344 31.168 99.52 37.344-1.76 38.176-49.92 31.2-98.144-7.04-48.64-16.416-96.768-16.416-96.768s-0.864-11.264-14.784-11.68c-6.592-0.224-13.504 3.072-15.168 11.456z m-7.04-56.768a22.208 22.208 0 1 1 44.448 0 22.208 22.208 0 0 1-44.448 0z m283.712-180.256H204.16v35.904l562.496-35.904z"  horiz-adv-x="1024" />

    
    <glyph glyph-name="chanpinliebiao" unicode="&#58910;" d="M531.808 339.584h228.8a28.32 28.32 0 0 0 28.608-28.608v-228.8a28.32 28.32 0 0 0-28.576-28.576h-228.832a28.32 28.32 0 0 0-28.608 28.608v228.8a28.32 28.32 0 0 0 28.608 28.576zM417.408 396.8h-228.8A28.32 28.32 0 0 0 160 425.408v228.8a28.32 28.32 0 0 0 28.64 28.576h228.768a28.32 28.32 0 0 0 28.608-28.576v-228.8a28.32 28.32 0 0 0-28.608-28.608z m0-343.2h-228.8A28.32 28.32 0 0 0 160 82.208v228.8a28.32 28.32 0 0 0 28.64 28.576h228.768a28.32 28.32 0 0 0 28.608-28.608v-228.8a28.32 28.32 0 0 0-28.608-28.576z m416.448 471.904l-161.888-161.888a28.32 28.32 0 0 0-40.64 0l-161.28 161.856a28.32 28.32 0 0 0 0 40.608l161.824 161.312a28.32 28.32 0 0 0 40.64 0l161.312-161.856a27.712 27.712 0 0 0 0-40.032h0.032z"  horiz-adv-x="1024" />

    
    <glyph glyph-name="shangpinliebiao" unicode="&#58911;" d="M769.792 736H257.92C221.536 736 192 704.512 192 665.792v-531.584C192 95.456 221.568 64 257.92 64h511.904c36.384 0 65.92 31.456 65.92 70.208V665.824c0 38.752-29.6 70.176-65.952 70.176z m-51.264-209.824c-17.12-106.08-103.808-184.576-204.448-184.576-100.8 0-187.84 78.976-204.704 184.512-17.28 7.36-29.536 25.408-29.536 46.496 0 27.712 21.12 50.176 47.104 50.176 26.016 0 47.104-22.464 47.104-50.176 0-7.2-1.536-14.304-4.416-20.896-1.856-6.88-4.8-13.44-9.888-18.88 14.528-80.608 78.464-137.056 154.336-137.056 76.16 0 140.48 57.376 154.304 136.96a41.888 41.888 0 0 0-9.728 17.92 52.352 52.352 0 0 0-4.992 22.016c0 27.68 21.12 50.144 47.136 50.144 25.984 0 47.104-22.464 47.104-50.144 0-21.056-12.16-38.976-29.344-46.464z"  horiz-adv-x="1024" />

    
    <glyph glyph-name="taozhuangliebiao" unicode="&#58912;" d="M193.984 204l288.672-173.664V370.656l-288.672 173.696v-340.352zM501.44 733.76l-272.256-140.8 281.76-177.344 281.76 144.736-291.264 173.44z m41.216-361.504v-340.352l281.856 144.768V516.992l-281.856-144.768z"  horiz-adv-x="1024" />

    
    <glyph glyph-name="pipeishangpin" unicode="&#58913;" d="M847.328 376.32c0-180.768-146.88-327.648-327.68-327.648C339.04 48.672 192 195.552 192 376.352 192 556.96 339.04 704 519.68 704c51.616 0 100.64-11.968 144.192-33.44-14.144-14.176-28.48-28.32-39.04-38.912a38.24 38.24 0 0 1-11.04-31.584c1.088-12.768 2.016-25.344 3.264-37.952-2.176-2.176-4.192-4.192-6.4-6.24a198.848 198.848 0 0 1-91.008 21.792 201.664 201.664 0 0 1-201.312-201.312 201.568 201.568 0 0 1 201.312-201.344 201.472 201.472 0 0 1 201.344 201.344c0 40-11.84 77.312-32.064 108.736l2.656 2.656c4.48-0.48 8.864-0.96 13.376-1.28 7.456-0.736 15.104-1.376 22.56-2.144a40.928 40.928 0 0 1 34.24 12.288c13.984 14.304 28.16 28.32 42.304 42.304a325.344 325.344 0 0 0 43.264-162.56z m-180.96 86.08a7707.84 7707.84 0 0 1-71.264-71.584 76.8 76.8 0 1 0-88.672 61.12c26.912 26.944 53.824 53.856 80.896 80.64a169.344 169.344 0 0 1-67.68 13.984 170.464 170.464 0 0 1-170.208-170.24 170.464 170.464 0 0 1 170.24-170.176 170.432 170.432 0 0 1 170.176 170.208c0 31.424-8.544 60.8-23.488 86.016z m164.288 148.096a29.664 29.664 0 0 1-5.76 1.248l-71.552 6.08c-4.672 0.448-6.208 2.176-6.688 6.688-0.768 15.36-2.496 30.176-3.744 45.12a925.568 925.568 0 0 1-2.944 33.12c-0.96-1.248-1.248-1.536-1.248-1.536s-61.312-60.992-91.936-91.648a6.88 6.88 0 0 1-2.048-6.24 1632 1632 0 0 1 4.224-46.816 12.16 12.16 0 0 0-3.744-10.272c-39.36-38.912-78.272-77.952-117.312-116.832a40.704 40.704 0 0 0-4.992-5.312c-0.448-0.768-1.088-1.376-1.376-2.176-0.64 0.16-1.28 0.16-1.888 0.16-12.576 0-23.936-5.12-32.352-13.376a45.824 45.824 0 0 1 32.352-78.08 45.824 45.824 0 0 1 39.68 68.576c38.72 39.04 77.792 78.112 116.832 117.184 2.496 2.944 4.992 3.712 8.736 3.392 15.392-1.696 30.656-2.944 46.048-4.64 3.744-0.32 6.208 0.928 8.704 3.424 28.96 29.376 58.336 58.336 87.744 87.744 1.28 1.248 4.352 3.712 3.264 4.192z"  horiz-adv-x="1024" />

    
    <glyph glyph-name="danjudayinmoban" unicode="&#58914;" d="M828.416 229.216h-53.888v-161.6c0-29.76-24.128-53.888-53.888-53.888H289.632c-29.76 0-53.888 24.128-53.888 53.856v161.632H181.888c-29.76 0-53.888 24.128-53.888 53.888v269.376A53.888 53.888 0 0 0 181.888 606.4h53.856V714.112c0 29.76 24.128 53.888 53.888 53.888h431.04c29.76 0 53.856-24.128 53.856-53.888V606.4h53.888a53.888 53.888 0 0 0 53.856-53.888v-269.376a53.888 53.888 0 0 0-53.856-53.888zM289.6 67.616h431.04v161.6H289.6v-161.6z"  horiz-adv-x="1024" />

    
    <glyph glyph-name="dianpuguanli" unicode="&#58915;" d="M907.616 462.08a101.632 101.632 0 0 0-101.44-101.792 101.632 101.632 0 0 0-101.44 101.76 101.632 101.632 0 0 0-101.44-101.76 101.632 101.632 0 0 0-101.472 101.76 101.632 101.632 0 0 0-101.44-101.76 101.632 101.632 0 0 0-101.536 101.76 101.632 101.632 0 0 0-101.44-101.76A101.632 101.632 0 0 0 96 462.048l71.328 190.88h668.96l71.328-190.88z m-126.784 228.96H222.784a38.144 38.144 0 0 0 0 76.32h558.048a38.144 38.144 0 0 0 0-76.256v-0.064zM210.144 322.752c3.648 0.352 7.2 0.928 10.784 1.536l2.336 0.32c1.6 0.288 3.2 0.8 4.8 1.152 6.88 1.504 13.632 3.552 20.096 6.08v-187.776h507.296v187.68c6.464-2.56 13.216-4.48 20.064-6.08 1.632-0.32 3.2-0.832 4.896-1.12l2.272-0.32c16.16-2.848 32.704-2.752 48.832 0.32v-256.896c0-21.024-17.024-38.08-38.048-38.144H210.112a38.144 38.144 0 0 0-38.016 38.144v256.896c12.544-2.336 25.344-2.944 38.048-1.792z"  horiz-adv-x="1024" />

    
    <glyph glyph-name="guigemoban" unicode="&#58916;" d="M128 341.344h341.344V768H128v-426.656zM128 0h341.344v256H128v-256z m426.656 0H896V426.656H554.656V0z m0 768v-256H896V768H554.656z"  horiz-adv-x="1024" />

    
    <glyph glyph-name="baofeileixing" unicode="&#58917;" d="M604.96-25.408H192V704.704h158.848v-31.776h158.816v-31.776h127.04v-31.712h190.624V196.48h-222.368v-221.888z m127.04 539.52H287.328v-31.744h444.736v31.776z m0-95.264H287.328v-31.808h444.736v31.808z m0-95.328H287.328v-31.744h444.736v31.744z m63.552 412.992h31.776v-31.808h-31.776v31.808zM763.84 800h31.744v-31.744h-31.744V800z m0-158.848h-31.776V672.96h31.776v-31.776z m-31.776 95.36h31.776v-31.776h-31.776v31.776z m-63.52-31.776h31.744v-31.808h-31.744v31.808z m0 63.52h31.744v-31.744h-31.744v31.744z m-63.552-31.744h31.776v-31.776h-31.776v31.776z m-63.52-31.776h31.744v-31.808h-31.744v31.808z m0 63.52h31.744v-31.744h-31.744v31.744z m-63.552-31.744h31.776v-31.776h-31.776v31.776z m0 63.488h31.776v-31.744h-31.776V800z m-95.296-31.744h31.776v-31.744h-31.776v31.744zM350.848 800h31.744v-31.744h-31.744V800zM255.52 800h31.776v-31.744h-31.776V800zM192 800h31.776v-31.776H192V800z m444.736-825.408v190.592l190.592-0.48-190.592-190.112z"  horiz-adv-x="1024" />

    
    <glyph glyph-name="gongyingshang" unicode="&#58918;" d="M527.808 506.24h81.728v-83.52h-81.728zM880.384 423.36C880.384 631.36 712 800 504.256 800S128.096 631.36 128.096 423.36c0-108.896 46.176-207.04 120-275.776L190.72 48.192l114.048 0.224 55.808-98.24 61.056 105.728a377.088 377.088 0 0 1 165.632 0.096l61.12-105.856 55.808 98.272 114.016-0.192-57.504 99.648a375.808 375.808 0 0 1 119.68 275.52zM377.28 649.824h43.04c-13.28-43.52-40.32-94.688-52.896-117.952v-305.92h-38.144v243.392c-14.4-23.84-35.904-55.296-52.8-73.856 0 0-0.128 42.24-0.128 69.344 25.92 37.088 81.28 129.664 100.928 184.96z m-16.416-633.856l-37.056 65.216-76.352-0.16 25.984 45.024a375.04 375.04 0 0 1 115.616-61.248l-28.192-48.832z m44.16 405.28h83.904v83.52h-53.6V543.04h53.6V623.616h38.912v-80.576h81.728V623.616h38.976v-80.576h53.12v-38.304h-53.12v-83.52h83.648v-37.888H404.992v37.888z m38.4-195.712c-2.464 1.184-30.24 27.968-32.64 29.12 42.016 32.16 75.904 67.584 105.92 104.512l34.432-23.936c-28.832-33.376-63.328-71.552-107.744-109.696z m139.328 109.536l31.552 27.104c24-20.256 84.448-80.16 112.8-106.592l-30.72-30.048a2647.68 2647.68 0 0 1-113.6 109.536z m178.816-254.048l-76.352 0.16-9.408-16.576-27.648-48.64-28.256 48.96a375.328 375.328 0 0 1 115.52 61.376l26.144-45.28z"  horiz-adv-x="1024" />

    
    <glyph glyph-name="huoweishezhi" unicode="&#58919;" d="M921.888 498.56a20.16 20.16 0 0 0 6.016-13.536c0-10.56-8.544-19.104-19.104-19.104a18.496 18.496 0 0 0-13.536 5.536l-26.656 17.6v-488.672H156.512V489.536l-29.632-20.096c-0.512-0.48-0.992-0.48-1.504-0.992h-0.512l-0.512-0.512a18.88 18.88 0 0 0-9.024-2.496 19.104 19.104 0 0 0-19.104 19.072 20.16 20.16 0 0 0 6.048 14.08l1.504 0.96 340.48 240.576c52.256 36.672 83.84 36.672 136.096 0l326.432-231.008 11.552-8c0.992-1.024 1.504-1.568 2.496-2.048l1.056-0.48z m-601.152 23.648c-31.648 0-57.76-26.144-57.76-57.76 0.16-31.808 25.92-57.6 57.76-57.76 31.808 0.192 57.568 25.92 57.728 57.76 0 31.904-25.856 57.728-57.728 57.76z m0-162.24c-31.648 0-57.76-26.112-57.76-57.792 0-31.616 26.112-57.728 57.76-57.728a58.048 58.048 0 0 1 57.728 57.728c0 31.904-25.824 57.792-57.728 57.792z m0-162.72c-31.648 0-57.76-26.112-57.76-57.76 0-31.616 26.112-57.76 57.76-57.76 31.616 0 57.728 26.144 57.728 57.76a57.408 57.408 0 0 1-57.728 57.76z m188.8 162.72c-31.616 0-57.76-26.112-57.76-57.792 0.192-31.808 25.92-57.536 57.76-57.728 31.68 0 57.76 26.112 57.76 57.728-0.512 31.68-26.112 57.792-57.76 57.792z m0-162.72c-31.616 0-57.76-26.112-57.76-57.76 0-31.616 26.144-57.76 57.76-57.76 31.68 0 57.76 26.144 57.76 57.76a58.08 58.08 0 0 1-57.76 57.76z m193.856-114.976c31.648 0 57.728 26.08 57.728 57.76 0 31.616-26.08 57.728-57.728 57.728-31.616 0-57.76-26.112-57.76-57.728a57.76 57.76 0 0 1 57.76-57.76z"  horiz-adv-x="1024" />

    
    <glyph glyph-name="kuaididanmoban" unicode="&#58920;" d="M128.16 644.16h204.96v-557.184h331.424v-85.056H128.16zM727.808 767.424V602.56h164.096v-477.152H373.952V767.424h353.856z m101.664-225.728H436.384v-42.432h393.088v42.432z m0-102.88H436.384v-42.4h393.088v42.4z m0-104.064H436.384v-42.432h393.088v42.432z m0-102.88H436.384v-42.432h393.088v42.432zM747.84 767.424V623.36h144.064v20.8l-125.696 123.264z"  horiz-adv-x="1024" />

    
    <glyph glyph-name="maijiaguanli" unicode="&#58921;" d="M905.76 379.36l-6.816 4.896v1.472l0.448 8.16a70.048 70.048 0 0 1-3.296 24c-16.224 126.176-94.048 265.44-274.752 301.536 2.24 7.392 3.392 15.232 3.392 23.296 0 49.056-44.064 88.704-98.368 88.704-54.272 0-98.368-39.744-98.368-88.704 0-8.192 1.28-16 3.52-23.52-194.784-39.744-271.68-201.824-277.696-335.744l-6.944-5.12a124.416 124.416 0 0 1-50.208-99.616c0-51.008 30.688-96.224 78.272-115.2l6.144-2.368c39.168-242.624 55.648-174.816 55.648-144.832 0 11.584-4.192 41.024-6.464 78.4 13.952-22.272 30.4-43.072 49.28-61.792a346.496 346.496 0 0 1 246.72-102.112c93.248 0 180.8 36.224 246.72 102.08 11.232 11.264 21.792 23.424 31.456 36.032a2771.424 2771.424 0 0 1-2.048-73.728c0-30.656 29.536 8.064 60.768 138.816 2.144 8.864 4.096 17.472 5.92 25.664l6.56 2.4a124.608 124.608 0 0 1 81.92 116.64 124.704 124.704 0 0 1-51.808 100.64zM134.272 278.72c0 21.12 7.968 41.696 21.824 57.344 6.368-49.728 12.384-92.8 17.92-130.048a86.08 86.08 0 0 0-39.744 72.704z m672.896-134.72l-10.464-18.272a312.512 312.512 0 0 0-270.56-157.44 310.944 310.944 0 0 0-287.264 191.392l-8.96 21.44c4.32 61.248 20.224 124.512 64.416 162.56 54.176 46.72 80.512 123.488 93.248 182.56 11.808-51.936 38.624-114.496 99.936-128.832 103.936-24.32 150.08-25.536 197.536-26.336 22.496-0.32 117.92 3.616 127.552-92.48 0 0.128-2.72-65.76-5.44-134.592zM325.44 259.072a36.928 36.928 0 1 1 73.824 0 36.928 36.928 0 0 1-73.824 0zM670.624 296a36.928 36.928 0 1 1 0-73.856 36.928 36.928 0 0 1 0 73.824z"  horiz-adv-x="1024" />

    
    <glyph glyph-name="shangpinfenlei" unicode="&#58922;" d="M838.048 768H175.328C149.312 768 128 746.688 128 720.64v-662.688c0-26.016 21.312-47.328 47.36-47.328h662.688c26.016 0 47.328 21.312 47.328 47.36V720.64c0 26.016-21.312 47.328-47.36 47.328z m-362.24-614.88c0-11.616-9.216-20.832-20.8-20.832H268.16a20.704 20.704 0 0 0-20.832 20.8v181.728c0 11.584 9.216 20.8 20.8 20.8h186.848c11.2 0 20.416-9.216 20.8-20.8v-181.696h0.096z m0 290.72c0-11.616-9.216-20.832-20.8-20.832H268.16a20.704 20.704 0 0 0-20.832 20.8V625.536c0 11.616 9.216 20.832 20.8 20.832h186.848c11.2 0 20.416-9.216 20.8-20.8v-181.696h0.096z m290.272-265.024c0-5.6-4.8-10.4-10.4-10.4h-207.744a10.624 10.624 0 0 0-10.4 10.4v20.832c0 5.6 4.8 10.432 10.4 10.432h207.744c5.984 0 10.4-4.416 10.4-10.432v-20.8z m0 103.84c0-5.6-4.8-10.432-10.4-10.432h-207.744a10.624 10.624 0 0 0-10.4 10.432v20.8c0 5.632 4.8 10.432 10.4 10.432h207.744c5.984 0 10.4-4.416 10.4-10.4v-20.832z m0 186.816c0-5.6-4.8-10.4-10.4-10.4h-207.744a10.624 10.624 0 0 0-10.4 10.4v20.8c0 5.632 4.8 10.432 10.4 10.432h207.744c5.984 0 10.4-4.416 10.4-10.4v-20.832z m0 103.904c0-5.6-4.8-10.432-10.4-10.432h-207.744a10.624 10.624 0 0 0-10.4 10.432v20.8c0 5.632 4.8 10.432 10.4 10.432h207.744c5.984 0 10.4-4.416 10.4-10.4v-20.832z"  horiz-adv-x="1024" />

    
    <glyph glyph-name="jiaoseguanli" unicode="&#58923;" d="M805.12 800H218.336L128 709.696v-722.304h541.76l45.12 45.44V619.36l-44.416 45.152H218.304l45.12 45.152 496.64 0.96 45.12-45.856v-586.176h90.304V709.984L805.152 800zM262.656 205.12c29.92 31.84 69.6 65.664 99.296 75.328 11.296 3.648 23.936 31.648 18.24 49.312-0.32 0.96-0.768 1.792-1.184 2.688-0.896 1.888-1.664 3.648-3.072 5.184a109.632 109.632 0 0 0-21.856 34.752v0.128c-0.32 0.928-0.704 1.728-1.024 2.56-0.448 1.12-0.608 2.016-0.96 3.104a80.16 80.16 0 0 0-2.176 7.008v0.096c-0.256 1.12-0.512 2.112-0.704 3.232-0.928 4.576-1.184 7.52-1.184 7.52h0.32c-0.064 2.144-0.576 4.224-0.576 6.4a76.8 76.8 0 0 0 76.896 76.832h0.096a76.864 76.864 0 0 0 76.896-76.8c0-2.24-0.448-4.288-0.608-6.4h0.32s-0.16-2.976-1.088-7.488c-0.224-1.184-0.384-2.176-0.704-3.296l-0.032-0.096c-0.576-2.4-1.376-4.736-2.144-7.072l-0.96-3.04c-0.256-0.832-0.64-1.632-0.96-2.56l-0.064-0.128c-0.16-0.384-0.192-0.672-0.512-1.024a109.088 109.088 0 0 0-21.312-33.728 18.624 18.624 0 0 1-3.168-5.184 43.296 43.296 0 0 1-1.216-2.688c-5.568-17.664 6.848-45.344 18.24-49.312 31.04-10.72 69.472-43.488 99.296-75.328v-34.624H262.624V205.12z"  horiz-adv-x="1024" />

    
    <glyph glyph-name="cangkuguanli" unicode="&#58924;" d="M914.88 452.576L522.752 762.208c-5.184 5.12-10.336 5.12-15.488 5.12-5.152 0-10.336 0-10.336-5.12L104.704 452.576c-10.304-10.336-10.304-20.64-5.152-25.824h72.256v-361.216c0-30.976 20.64-51.616 51.584-51.616h77.44v309.632h412.8v-309.632h77.44c30.944 0 51.584 20.64 51.584 51.616V426.752h72.256c5.152 5.184 5.152 15.488 0 25.824zM533.024 168.736h-51.584v51.616h-103.232v-206.432h258.048v206.4h-103.232z"  horiz-adv-x="1024" />

    
    <glyph glyph-name="yuangongguanli" unicode="&#58925;" d="M360.832 203.584c19.2 10.88 40.224 19.328 66.048 26.688 11.648 3.296 23.52 6.208 35.52 8.64a216.576 216.576 0 0 0-34.368 50.24 66.048 66.048 0 0 0-19.36 11.52l-0.384 0.32a76.352 76.352 0 0 0-13.76 15.136 106.88 106.88 0 0 0-16.8 83.488 76.16 76.16 0 0 0 10.56 25.472l0.064 0.096a63.68 63.68 0 0 0 8.192 10.368c0.096 4.992 0.32 9.76 0.64 14.464 1.856 25.184 6.688 47.168 14.784 67.104 19.072 47.04 54.88 80.032 103.616 95.552a201.024 201.024 0 0 0 55.296 9.28h0.128c3.392 0.128 6.784 0.16 10.048 0.16a231.68 231.68 0 0 0 65.856-8.928 363.744 363.744 0 0 1-1.952 22.272 243.584 243.584 0 0 1-14.176 58.88c-12.16 31.52-31.552 57.28-60.096 75.616a176.32 176.32 0 0 1-58.816 23.616 299.712 299.712 0 0 1-91.52 5.024c-17.952-1.664-35.52-5.44-52.512-11.456-45.28-16.16-78.528-45.696-98.784-89.472-12.48-26.816-18.368-55.424-20.48-84.8-1.44-19.296-1.152-38.528 0.192-57.856a7.04 7.04 0 0 0-0.224-1.536c-0.48-0.096-0.704-0.096-0.928-0.096l-1.728 0.32a18.336 18.336 0 0 1-15.488-3.68 26.848 26.848 0 0 1-7.264-8.896c-3.04-5.632-4.8-11.648-5.568-18.016-2.176-16.032 0.192-31.488 5.888-46.528 3.168-8.48 7.68-16.352 13.856-22.976 3.488-3.68 7.456-6.848 12.16-8.8 6.816-2.784 13.216-2.24 19.232 2.144 0.64 0.384 1.152 0.8 2.048 1.44 0.64-1.44 1.12-2.688 1.6-4 10.56-27.904 24.32-54.016 42.752-77.408 9.76-12.352 20.672-23.616 32.928-33.44 0.704-0.512 1.92-1.536 1.824-1.824-0.928-2.144 0.928-2.976 1.728-4.192 1.92-3.2 4.16-6.24 6.112-9.44 5.024-8.256 8.96-16.96 10.912-26.464 3.36-16.672-2.944-30.08-17.92-37.76a13.952 13.952 0 0 0-4-1.216c-5.312-0.704-10.72-1.312-16-2.048-27.232-3.68-54.08-9.184-80.544-16.32-27.136-7.36-53.632-16.672-78.816-29.6a201.792 201.792 0 0 1-46.4-31.68c-12.128-11.456-22.016-24.544-27.904-40.32a18.88 18.88 0 0 1-1.024-5.824v-39.552h196.224v9.472c0 5.44-0.064 11.04 0 16.768 0.064 7.104 1.44 14.4 3.968 21.12l0.064 0.224c5.44 14.208 13.824 27.072 25.664 39.36l0.096 0.096a171.68 171.68 0 0 0 38.624 29.152l0.192 0.096z m340.864 133.6c0.512 1.536 0.992 2.944 1.6 4.576 0.736-0.192 1.248-0.32 1.632-0.512a13.12 13.12 0 0 1 13.376 1.44 31.552 31.552 0 0 1 8.16 7.552c10.56 15.008 13.952 31.616 10.176 49.536a24.64 24.64 0 0 1-5.184 11.008 13.216 13.216 0 0 1-12.352 5.216c-0.704-0.096-1.536 0-2.464 0v1.92c-0.096 11.136 0.224 22.336-0.32 33.568a168.96 168.96 0 0 1-7.712 44.32c-5.6 17.536-14.08 33.44-27.2 46.72-14.4 14.56-32.032 23.424-51.712 28.608-18.752 5.024-37.92 6.336-57.28 5.728a157.856 157.856 0 0 1-43.04-7.136c-35.776-11.296-61.056-34.144-75.2-68.992-6.944-17.024-10.24-34.88-11.52-53.12-0.96-12.256-0.64-24.48 0.096-36.704v-2.656c-0.416 0-0.544-0.096-0.64-0.096-0.32 0-0.704-0.096-0.992 0-6.336 1.248-11.136-1.312-14.4-6.4a31.104 31.104 0 0 1-4.384-10.208 60.768 60.768 0 0 1 9.792-48.32c1.536-2.24 3.584-4.288 5.728-6.112 6.72-5.632 12.448-5.92 20.16-1.152 0.544-1.408 0.96-2.432 1.248-3.456 1.824-4.288 3.456-8.48 5.28-12.64 10.912-24.064 25.504-45.568 46.272-62.4 0.544-0.416 1.248-0.832 1.248-1.248 0.096-2.336 1.92-3.552 3.04-5.28 3.264-4.992 6.208-10.208 8.256-15.808 1.536-4.256 2.656-8.736 2.464-13.344a21.12 21.12 0 0 0-17.92-20.192c-23.264-2.656-46.08-7.136-68.64-13.568a253.504 253.504 0 0 1-56.064-22.4c-10.4-5.92-20.16-12.768-28.544-21.344-6.72-6.912-12.352-14.656-15.808-23.744a15.84 15.84 0 0 1-0.992-5.408c-0.096-8.032 0-16.096 0-24.128 0-1.12 0.096-2.24 0.192-3.68h295.904l4.352 2.784c0.736 0.512 2.976 2.208 2.176 5.024l-0.8 0.48-45.632 27.392 48.48 81.792a21.728 21.728 0 0 0-9.248 21.056c0.832 6.048 2.752 11.616 5.728 16.832 2.016 3.776 4.864 7.136 6.72 11.008 1.312 2.848 3.68 4.576 5.888 6.528a149.44 149.44 0 0 1 18.976 19.68 195.2 195.2 0 0 1 31.104 57.28z m225.664-273.92a57.92 57.92 0 0 0 20.032 76.416l-29.12 49.12c-7.264-5.44-18.176-7.296-27.296-7.296-30.912 0-54.56 25.472-54.56 56.416h-56.416c0-9.12-1.824-20.032-7.264-27.296-14.56-27.296-49.152-34.56-76.416-20.032l-29.12-49.12c9.088-5.44 14.56-10.88 20-20a57.92 57.92 0 0 0-20-76.416l29.12-49.12c7.264 5.44 18.176 7.264 27.296 7.264a54.72 54.72 0 0 0 54.56-54.56h56.416c0 9.12 1.824 18.176 7.264 27.296 14.528 27.296 49.12 34.56 76.416 20l29.088 49.152c-7.264 1.824-14.528 9.088-20 18.176z m-120.064-30.912c-42.208 0-72.32 45.312-51.424 85.344 8.32 15.936 23.936 27.424 41.664 30.272 37.312 6.08 67.968-23.456 67.968-57.408 0-30.944-25.472-58.208-58.24-58.208z"  horiz-adv-x="1024" />

    
    <glyph glyph-name="cangweiguanli" unicode="&#58926;" d="M270.699355 484.913548h70.028387v87.436387h137.116903v-318.430967H133.086968v318.430967h137.100387c0.495484-26.343226 0.495484-55.147355 0.495484-87.436387z m409.319226 0h70.028387v87.436387h137.116903v-318.430967H542.42271v318.430967h137.083871c0.495484-26.343226 0.495484-55.147355 0.495484-87.436387h0.016516zM270.699355 116.818581h70.028387v87.436387h137.116903v-318.430968H133.086968v318.430968h137.116903c0.495484-29.316129 0.495484-58.136774 0.495484-87.436387z m409.319226 0h70.028387v87.436387h137.116903v-318.430968H542.42271v318.430968h137.083871c0.512-29.316129 0.512-58.136774 0.512-87.436387zM510.629161 879.335226L16.846452 657.292387v-111.269161L510.629161 768.561548l493.766194-222.554838v111.285677z"  horiz-adv-x="1024" />

    
    <glyph glyph-name="dingdanshenhe" unicode="&#58927;" d="M589.843692 839.483077v-179.712h178.018462l-178.018462 179.712z m-98.067692-703.133539c0 22.764308 3.347692 44.662154 9.511385 65.378462H230.084923v98.166154h330.436923a228.233846 228.233846 0 0 0 160.177231 65.378461c22.764308 0 44.662154-3.347692 65.378461-9.511384V626.963692H557.154462V855.985231H99.249231v-915.889231h503.453538c-66.441846 40.152615-110.887385 112.974769-110.887384 196.253538z m-261.710769 392.566154H622.670769v-98.185846H230.084923V528.935385z m693.720615-563.613538l-68.588308 68.588308c54.803692 70.774154 49.880615 172.859077-15.084307 237.843692a179.908923 179.908923 0 0 1-127.606154 52.854154 180.48 180.48 0 0 1 0-360.96 179.830154 179.830154 0 0 1 110.217846 37.789538l68.588308-68.588308c4.489846-4.489846 10.358154-6.715077 16.246154-6.715076a22.961231 22.961231 0 0 1 16.226461 39.187692z m-306.412308 83.672615a133.651692 133.651692 0 0 0-39.424 95.133539c0 35.958154 13.981538 69.730462 39.404308 95.15323a133.651692 133.651692 0 0 0 95.153231 39.384616c35.938462 0 69.710769-13.981538 95.133538-39.384616a133.651692 133.651692 0 0 0 39.384616-95.15323c0-35.938462-13.981538-69.710769-39.384616-95.133539a133.651692 133.651692 0 0 0-95.133538-39.384615c-35.958154 0-69.730462 13.981538-95.153231 39.384615z"  horiz-adv-x="1024" />

    
    <glyph glyph-name="dayindanju" unicode="&#58928;" d="M79.694769 32.886154a71.207385 71.207385 0 0 1 71.227077-71.246769H863.113846a71.207385 71.207385 0 0 1 71.207385 71.227077v427.323076a71.207385 71.207385 0 0 1-71.207385 71.227077h-53.425231V745.078154a71.207385 71.207385 0 0 1-71.207384 71.227077h-462.966154a71.207385 71.207385 0 0 1-71.207385-71.207385v-213.661538H150.921846a71.207385 71.207385 0 0 1-71.227077-71.227077v-427.323077z m640.984616 655.222154v-206.532923c0-21.720615-17.447385-39.187692-39.168-39.187693H332.524308a39.069538 39.069538 0 0 0-39.168 39.187693V688.108308c0 21.720615 17.447385 39.187692 39.187692 39.187692h348.967385c21.720615 0 39.187692-17.467077 39.187692-39.187692z m53.42523-637.44H239.931077a35.721846 35.721846 0 0 0-35.603692 35.623384c0 19.593846 16.029538 35.603692 35.603692 35.603693H774.104615c19.593846 0 35.603692-16.009846 35.603693-35.603693 0-19.593846-16.009846-35.623385-35.603693-35.623384z m-569.77723 186.958769a44.524308 44.524308 0 0 0 89.028923 0 44.524308 44.524308 0 0 0-89.009231 0z"  horiz-adv-x="1024" />

    
    <glyph glyph-name="fenleiguanli" unicode="&#58929;" d="M919.287742 212.793806H624.194065a59.028645 59.028645 0 1 0 0 118.040775h295.126709a59.028645 59.028645 0 0 0 0-118.040775z m0 236.098065H624.194065a59.028645 59.028645 0 1 0 0 118.040774h295.126709a59.028645 59.028645 0 1 0 0-118.040774z m0 236.081548H624.194065a59.028645 59.028645 0 0 0 0 118.057291h295.126709a59.028645 59.028645 0 0 0 0-118.057291zM388.112516-82.316387H151.997935a118.040774 118.040774 0 0 0-118.040774 118.040774V212.793806c0 65.189161 52.851613 118.040774 118.040774 118.040775h236.098065c65.189161 0 118.040774-52.851613 118.040774-118.040775v-177.052903c0-65.205677-52.851613-118.05729-118.040774-118.05729z m0 531.208258H151.997935a118.040774 118.040774 0 0 0-118.040774 118.040774V743.985548c0 65.205677 52.851613 118.05729 118.040774 118.057291h236.098065c65.189161 0 118.040774-52.851613 118.040774-118.040774v-177.06942c0-65.189161-52.851613-118.040774-118.040774-118.040774z m236.081549-354.138839h295.126709a59.028645 59.028645 0 0 0 0-118.05729H624.177548a59.028645 59.028645 0 1 0 0 118.05729z"  horiz-adv-x="1024" />

    
    <glyph glyph-name="daohuoyanhuo" unicode="&#58930;" d="M163.958154 800.984615c22.311385 22.252308 58.88 22.252308 80.955077 0l295.778461-295.699692a57.442462 57.442462 0 0 0 0-80.974769 57.225846 57.225846 0 0 0-80.974769 0L163.938462 719.872a57.816615 57.816615 0 0 0 0 81.132308z m778.771692-291.899077H581.474462c18.983385-35.111385 13.824-80.029538-15.832616-109.725538a92.553846 92.553846 0 0 0-130.756923 0l-109.686154 109.725538H66.441846a66.244923 66.244923 0 0 1-65.969231-65.96923 66.244923 66.244923 0 0 1 65.969231-65.988923h15.832616l152.221538-446.227693h549.100308l152.221538 446.227693h6.912a66.166154 66.166154 0 0 1 65.969231 65.988923 66.166154 66.166154 0 0 1-65.969231 65.96923zM240.246154 335.517538h532.48a33.870769 33.870769 0 1 0 0-67.741538h-532.48c-18.628923 0-33.870769 15.241846-33.870769 33.870769s15.241846 33.870769 33.870769 33.870769z m74.436923-268.583384h387.032615c18.510769 0 33.752615-15.36 33.752616-33.969231 0-18.648615-15.241846-33.870769-33.752616-33.870769H314.643692c-18.569846 0-33.870769 15.222154-33.870769 33.870769 0 18.628923 15.300923 33.969231 33.870769 33.969231z m-37.218462 132.194461h464.797539c18.628923 0 33.870769-15.36 33.870769-34.107077a33.870769 33.870769 0 0 0-33.870769-33.752615H277.444923c-18.628923 0-33.693538 15.123692-33.693538 33.752615 0 18.747077 15.064615 34.107077 33.673846 34.107077zM656.482462 750.670769l135.640615-135.620923-49.92-49.939692-135.640615 135.640615zM712.487385 596.598154L955.273846 839.364923l49.92-49.92L762.427077 546.658462z"  horiz-adv-x="1024" />

    
    <glyph glyph-name="chengzhongfahuo" unicode="&#58931;" d="M217.442462 290.461538c0 20.007385-7.069538 37.080615-21.208616 51.2a69.789538 69.789538 0 0 1-51.2 21.248c-20.007385 0-37.080615-7.089231-51.219692-21.228307a69.789538 69.789538 0 0 1-21.228308-51.2c0-20.007385 7.089231-37.080615 21.228308-51.2a69.769846 69.769846 0 0 1 51.2-21.248c20.007385 0 37.060923 7.089231 51.2 21.228307a69.769846 69.769846 0 0 1 21.228308 51.2z m108.642461 253.499077c0 20.007385-7.069538 37.080615-21.208615 51.2a69.789538 69.789538 0 0 1-51.2 21.228308c-20.007385 0-37.080615-7.069538-51.219693-21.208615a69.789538 69.789538 0 0 1-21.228307-51.2c0-20.007385 7.089231-37.080615 21.228307-51.2a69.769846 69.769846 0 0 1 51.2-21.248c20.007385 0 37.060923 7.089231 51.2 21.228307a69.769846 69.769846 0 0 1 21.228308 51.2z m242.195692-272.147692l57.147077 216.142769a35.800615 35.800615 0 0 1-4.253538 27.431385 35.859692 35.859692 0 0 1-21.779692 16.699077 33.713231 33.713231 0 0 1-27.175385-3.682462c-8.664615-5.080615-14.316308-12.544-16.955077-22.350769l-57.147077-216.142769a107.579077 107.579077 0 0 1-60.553846-24.615385 105.255385 105.255385 0 0 1-35.643077-55.729231c-7.542154-29.046154-3.780923-56.595692 11.303385-82.628923 15.104-26.033231 37.159385-42.811077 66.205538-50.35323s56.595692-3.780923 82.628923 11.323077c26.013538 15.084308 42.811077 37.159385 50.353231 66.205538a104.605538 104.605538 0 0 1-3.406769 66.185846 107.716923 107.716923 0 0 1-40.723693 51.495385z m373.444923 18.668308c0 19.987692-7.069538 37.060923-21.208615 51.2a69.789538 69.789538 0 0 1-51.2 21.228307c-20.007385 0-37.080615-7.089231-51.219692-21.228307a69.789538 69.789538 0 0 1-21.228308-51.2c0-20.007385 7.089231-37.080615 21.228308-51.2a69.789538 69.789538 0 0 1 51.2-21.248c19.987692 0 37.060923 7.089231 51.2 21.228307a69.789538 69.789538 0 0 1 21.228307 51.2z m-362.141538 362.141538c0 19.987692-7.069538 37.060923-21.208615 51.2a69.789538 69.789538 0 0 1-51.2 21.208616c-20.007385 0-37.080615-7.069538-51.219693-21.208616a69.789538 69.789538 0 0 1-21.228307-51.2c0-20.007385 7.089231-37.080615 21.228307-51.2a69.769846 69.769846 0 0 1 51.2-21.228307c20.007385 0 37.060923 7.069538 51.2 21.208615a69.789538 69.789538 0 0 1 21.228308 51.2z m253.499077-108.662154c0 20.007385-7.069538 37.080615-21.208615 51.2a69.789538 69.789538 0 0 1-51.2 21.228308c-20.007385 0-37.080615-7.069538-51.219693-21.208615a69.789538 69.789538 0 0 1-21.228307-51.2c0-20.007385 7.089231-37.080615 21.228307-51.2a69.769846 69.769846 0 0 1 51.2-21.248c20.007385 0 37.060923 7.089231 51.2 21.228307a69.769846 69.769846 0 0 1 21.228308 51.2zM1014.153846 290.481231c0-98.461538-26.584615-189.558154-79.773538-273.329231-7.168-10.929231-17.348923-16.384-30.562462-16.384H110.513231c-13.193846 0-23.394462 5.454769-30.562462 16.403692C26.761846 100.529231 0.157538 191.645538 0.157538 290.461538c0 68.647385 13.390769 134.301538 40.172308 196.903385 26.781538 62.621538 62.818462 116.578462 108.091077 161.831385 45.272615 45.272615 99.209846 81.289846 161.831385 108.071384a495.596308 495.596308 0 0 0 196.923077 40.172308c68.647385 0 134.281846-13.390769 196.903384-40.172308 62.621538-26.781538 116.578462-62.818462 161.831385-108.071384C911.163077 603.963077 947.2 550.006154 973.981538 487.384615a495.596308 495.596308 0 0 0 40.172308-196.923077z"  horiz-adv-x="1024" />

    
    <glyph glyph-name="jiesuanruku" unicode="&#58932;" d="M836.395472 760.754717H199.351547L87.136604 543.531472 86.943396 11.264h861.860227l-0.193208 534.663245L836.376151 760.754717zM349.261283 273.562566h112.38883v149.929057h112.408151v-149.929057h112.38883l-168.264452-149.890415-168.921359 149.890415zM199.351547 535.861132l74.964528 149.890415H761.430943l74.945208-149.890415H199.370868z"  horiz-adv-x="1024" />

    
    <glyph glyph-name="huodaofukuanqueren" unicode="&#58933;" d="M629.228308 819.790769v-179.712h178.018461l-178.018461 179.712z m-98.067693-703.133538c0 22.764308 3.347692 44.662154 9.511385 65.378461H269.469538v98.166154h330.436924a228.233846 228.233846 0 0 0 160.17723 65.378462c22.764308 0 44.662154-3.347692 65.378462-9.511385V607.271385H596.539077V836.292923H138.633846v-915.889231h503.453539c-66.441846 40.152615-110.887385 112.974769-110.887385 196.253539z m-261.710769 392.566154H662.055385v-98.185847H269.469538V509.243077z m600.339692-322.756923l33.201231-33.220924-158.956307-158.976-113.112616 113.132308 33.201231 33.181539 79.911385-79.911385 125.755076 125.774769z"  horiz-adv-x="1024" />

    
    <glyph glyph-name="kuaisucaigou" unicode="&#58934;" d="M163.958154 767.724308c22.311385 22.252308 58.88 22.252308 80.955077 0l295.778461-295.719385a57.442462 57.442462 0 0 0 0-80.974769 57.225846 57.225846 0 0 0-80.974769 0l-295.778461 295.581538a57.816615 57.816615 0 0 0 0 81.112616z m778.771692-291.899077H581.474462c18.983385-35.131077 13.824-80.049231-15.832616-109.745231a92.553846 92.553846 0 0 0-130.756923 0l-109.686154 109.745231H66.441846a66.244923 66.244923 0 0 1-65.969231-65.969231 66.244923 66.244923 0 0 1 65.969231-66.008615h15.832616l152.221538-446.227693h549.100308l152.221538 446.227693h6.912a66.166154 66.166154 0 0 1 65.969231 66.008615 66.166154 66.166154 0 0 1-65.969231 65.969231zM240.246154 302.237538h532.48a33.870769 33.870769 0 1 0 0-67.741538h-532.48c-18.628923 0-33.870769 15.241846-33.870769 33.870769 0 18.648615 15.241846 33.870769 33.870769 33.870769z m74.436923-268.563692h387.032615c18.510769 0 33.752615-15.36 33.752616-33.988923s-15.241846-33.870769-33.752616-33.870769H314.643692c-18.569846 0-33.870769 15.241846-33.870769 33.870769s15.300923 33.988923 33.870769 33.988923z m-37.218462 132.174769h464.797539c18.628923 0 33.870769-15.36 33.870769-34.107077a33.870769 33.870769 0 0 0-33.870769-33.732923H277.444923c-18.628923 0-33.693538 15.104-33.693538 33.732923 0 18.747077 15.064615 34.107077 33.673846 34.107077zM797.400615 870.340923v-132.923077h121.363693c4.627692 0 6.931692-5.769846 4.627692-9.235692l-150.252308-219.608616a5.710769 5.710769 0 0 0-10.41723 3.465847v132.923077H641.378462c-4.608 0-6.931692 5.769846-4.608 9.255384l150.252307 219.588923a5.710769 5.710769 0 0 0 10.397539-3.465846z"  horiz-adv-x="1024" />

    
    <glyph glyph-name="saomiaochuku" unicode="&#58935;" d="M140.307692 724.48V61.046154a30.129231 30.129231 0 0 1 30.129231-30.148923h663.433846a30.129231 30.129231 0 0 1 30.168616 30.148923V724.48c0 16.64-13.508923 30.129231-30.148923 30.129231H170.456615a30.129231 30.129231 0 0 1-30.12923-30.129231zM49.860923 633.993846c16.64 0 30.129231 13.528615 30.129231 30.148923V814.926769h150.784c16.659692 0 30.168615 11.972923 30.168615 28.593231 0 16.659692-13.508923 31.704615-30.168615 31.704615H49.860923C33.201231 875.244308 19.692308 861.735385 19.692308 845.095385v-180.932923c0-16.620308 13.508923-30.129231 30.168615-30.129231zM954.486154 633.993846c16.659692 0 30.168615 13.528615 30.168615 30.148923V845.075692c0 16.659692-13.508923 30.168615-30.168615 30.168616h-180.913231c-16.659692 0-30.168615-15.064615-30.168615-31.704616 0-16.64 13.508923-28.612923 30.168615-28.612923h150.764308v-150.784c0-16.620308 13.508923-30.129231 30.148923-30.129231zM49.860923 151.512615c-16.659692 0-30.168615-13.528615-30.168615-30.12923v-180.952616c0-16.659692 13.508923-30.148923 30.168615-30.148923h180.913231c16.659692 0 30.168615 15.044923 30.168615 31.704616 0 16.620308-13.508923 28.593231-30.168615 28.59323H80.009846v150.784c0 16.620308-13.508923 30.129231-30.148923 30.129231zM954.486154 151.512615c-16.64 0-30.129231-13.528615-30.129231-30.12923v-150.803693h-150.784c-16.659692 0-30.168615-11.972923-30.168615-28.59323 0-16.659692 13.508923-31.704615 30.168615-31.704616h180.913231c16.659692 0 30.168615 13.489231 30.168615 30.148923v180.932923c0 16.620308-13.508923 30.148923-30.168615 30.148923z"  horiz-adv-x="1024" />

    
    <glyph glyph-name="xiazaidingdan" unicode="&#58936;" d="M629.228308 819.790769v-179.712h178.018461l-178.018461 179.712z m-98.067693-703.133538c0 22.764308 3.347692 44.662154 9.511385 65.378461H269.469538v98.166154h330.436924a228.233846 228.233846 0 0 0 160.17723 65.378462c22.764308 0 44.662154-3.347692 65.378462-9.511385V607.271385H596.539077V836.292923H138.633846v-915.889231h503.453539c-66.441846 40.152615-110.887385 112.974769-110.887385 196.253539z m-261.710769 392.566154H662.055385v-98.185847H269.469538V509.243077z m605.735385-443.667693l-137.590154-122.28923-137.590154 122.28923h91.707077v183.473231h91.766154v-183.473231h91.726769z"  horiz-adv-x="1024" />

    
    <glyph glyph-name="taozhuangguanli" unicode="&#58937;" d="M918.445419-113.465806H608.47071a62.001548 62.001548 0 0 0-62.001549 62.018064v123.986581a62.001548 62.001548 0 0 0 62.001549 61.985032h309.974709a62.001548 62.001548 0 0 0 62.001549-61.985032v-123.986581a62.001548 62.001548 0 0 0-62.001549-62.001548zM608.371613 258.180129c0 34.254452 69.384258 62.001548 154.970839 62.001548 85.603097 0 154.987355-27.747097 154.987354-62.001548v-61.985032H608.371613v61.985032zM58.88 847.112258a61.720774 61.720774 0 0 0 53.627871 31.380645h433.96129c23.04 0 42.925419-12.717419 53.611355-31.380645H58.896516z m549.508129-31.000774L484.467613 196.541935a62.001548 62.001548 0 0 0-61.985032-62.001548H236.494452a62.001548 62.001548 0 0 0-62.001549 62.001548L50.588903 816.094968h557.799226zM422.4 196.178581c30.984258 0 92.985806 402.944 92.985806 402.944s-92.985806-278.957419-123.98658-340.958968c-31.000774-61.985032-62.001548-61.985032-62.001549-61.985032h92.985807z m-185.905548-123.639742h185.971613a62.001548 62.001548 0 0 0 62.001548-62.001549v-61.985032a62.001548 62.001548 0 0 0-61.985032-62.001548H236.494452a62.001548 62.001548 0 0 0-62.001549 62.001548v61.985032a62.001548 62.001548 0 0 0 62.001549 62.001549z"  horiz-adv-x="1024" />

    
    <glyph glyph-name="shangpinguanli" unicode="&#58938;" d="M854.148129 846.253419H170.743742c-48.557419 0-87.997935-41.785806-87.997936-93.184V29.39871c0-51.431226 39.457032-93.200516 87.997936-93.200516H854.214194c48.557419 0 88.014452 41.785806 88.014451 93.200516V753.135484c-0.066065 51.398194-39.539613 93.117935-88.080516 93.117935z m-68.409806-278.461935c-22.858323-140.750452-138.636387-244.983742-272.962065-244.983742-134.573419 0-250.813935 104.860903-273.308903 244.901161-23.122581 9.860129-39.440516 33.725935-39.440516 61.704258 0 36.764903 28.16 66.576516 62.876903 66.576516 34.733419 0 62.893419-29.811613 62.893419-66.576516 0-9.94271-2.196645-19.274323-5.863226-27.747096-2.493935-9.133419-6.408258-17.837419-13.212903-25.071484 19.389935-106.958452 104.74529-181.892129 206.03871-181.892129 101.656774 0 187.524129 76.139355 206.022193 181.776516-6.573419 6.771613-10.438194 14.963613-13.014709 23.700645a69.086968 69.086968 0 0 0-6.639484 29.233548c0 36.781419 28.176516 66.593032 62.893419 66.593033 34.733419 0 62.893419-29.811613 62.89342-66.576517 0.016516-27.912258-16.218839-51.728516-39.176258-61.638193z"  horiz-adv-x="1024" />

    
    <glyph glyph-name="xinjiandingdan" unicode="&#58939;" d="M629.228308 819.790769v-179.712h178.018461l-178.018461 179.712z m-98.067693-703.133538c0 22.764308 3.347692 44.662154 9.511385 65.378461H269.469538v98.166154h330.436924a228.233846 228.233846 0 0 0 160.17723 65.378462c22.764308 0 44.662154-3.347692 65.378462-9.511385V607.271385H596.539077V836.292923H138.633846v-915.889231h503.453539c-66.441846 40.152615-110.887385 112.974769-110.887385 196.253539z m-261.710769 392.566154H662.055385v-98.185847H269.469538V509.243077z m523.323077-359.778462v98.166154h-65.378461v-98.166154h-98.166154v-65.378461h98.166154v-98.166154h65.378461V84.086154h98.166154v65.378461h-98.166154z"  horiz-adv-x="1024" />

    
    <glyph glyph-name="zhijiefahuo" unicode="&#58940;" d="M794.072615 856.615385h-580.52923A174.158769 174.158769 0 0 1 39.384615 682.456615v-580.52923a174.158769 174.158769 0 0 1 174.15877-174.15877h580.52923a174.158769 174.158769 0 0 1 174.15877 174.15877v580.52923A174.158769 174.158769 0 0 1 794.072615 856.615385z m0-696.635077a58.052923 58.052923 0 0 0-58.052923-58.052923h-174.158769v116.105846a58.052923 58.052923 0 0 1-116.105846 0v-116.105846h-174.158769a58.052923 58.052923 0 0 0-58.052923 58.052923V363.165538h580.52923v-203.18523zM155.490462 421.218462l116.105846 290.264615h464.423384l116.105846-290.264615H155.490462z"  horiz-adv-x="1024" />

    
    <glyph glyph-name="xianxiaxiaoshou" unicode="&#58941;" d="M21.681231 757.582769h661.661538c11.677538 0 21.129846-9.432615 21.129846-21.070769v-61.873231c-0.196923-0.984615-0.590769-1.969231-0.590769-2.993231v-400.423384h-20.519384v-1.654154h-661.661539v1.654154H0.590769V736.512a21.070769 21.070769 0 0 0 21.090462 21.070769z m194.185846-283.648h137.255385v-89.147077l169.019076 132.096-169.019076 132.096v-82.569846h-137.255385v-92.475077z m516.804923-313.304615a110.907077 110.907077 0 0 0 213.031385-21.090462c1.024-6.025846 1.673846-12.189538 1.673846-18.471384 0-0.886154-0.118154-1.732923-0.137846-2.579693a111.084308 111.084308 0 0 0-110.92677-108.406153 111.104 111.104 0 0 0-110.946461 108.406153c0 0.846769-0.137846 1.693538-0.137846 2.579693 0 6.301538 0.649846 12.465231 1.693538 18.471384 1.220923 7.286154 3.170462 14.355692 5.750154 21.110154z m57.383385-42.141539a46.434462 46.434462 0 0 1 46.25723-43.913846c24.772923 0 44.898462 19.475692 46.257231 43.913846 0.078769 0.846769 0.275692 1.654154 0.275692 2.56 0 6.557538-1.417846 12.8-3.899076 18.491077a46.670769 46.670769 0 0 1-18.628924 21.090462 46.237538 46.237538 0 0 1-24.024615 6.892308c-8.782769 0-16.955077-2.638769-24.024615-6.892308a47.005538 47.005538 0 0 1-18.569846-21.090462 46.08 46.08 0 0 1-3.899077-18.471384c0-0.925538 0.196923-1.732923 0.256-2.599385zM338.294154 226.756923a140.524308 140.524308 0 0 1-23.630769 16.344615h403.298461a13.784615 13.784615 0 0 1 8.763077 3.347693c-0.019692 0.472615-0.157538 0.905846-0.157538 1.398154h1.752615a13.883077 13.883077 0 0 1 3.702154 9.314461V604.061538c3.958154 4.529231 9.668923 7.089231 15.675077 7.108924h169.747692c4.647385 0 9.137231-1.516308 12.839385-4.332308 3.446154-2.638769 83.908923-65.634462 83.908923-187.490462v-157.538461c3.446154-3.84 5.356308-8.802462 5.395692-13.961846v-108.307693a21.070769 21.070769 0 0 0-21.110154-21.070769h-23.099077c0.039385 0.846769 0.157538 1.713231 0.157539 2.599385 0 6.262154-0.551385 12.406154-1.398154 18.471384a137.550769 137.550769 0 0 1-4.430769 21.090462 139.421538 139.421538 0 0 1-76.544 87.217231 137.728 137.728 0 0 1-113.703385 0 139.894154 139.894154 0 0 1-33.201231-20.932923c0.512-0.039385 0.984615-0.177231 1.437539-0.177231h-1.575385a139.323077 139.323077 0 0 1-43.185231-66.107077c-2.028308-6.912-3.524923-13.981538-4.430769-21.110154-0.886154-6.104615-1.358769-12.288-1.398154-18.471385 0-0.886154 0.098462-1.732923 0.118154-2.599384H387.150769c0.039385 0.866462 0.157538 1.713231 0.157539 2.599384 0 6.281846-0.571077 12.406154-1.417846 18.471385a137.570462 137.570462 0 0 1-4.411077 21.110154 139.086769 139.086769 0 0 1-43.185231 66.126769zM768.787692 445.597538h201.55077c-8.172308 69.218462-46.651077 110.532923-60.691693 123.392H768.787692v-123.392zM144.443077 160.649846a111.537231 111.537231 0 0 0 70.006154 66.107077 110.808615 110.808615 0 0 0 67.268923 0 111.458462 111.458462 0 0 0 70.006154-66.107077c2.599385-6.754462 4.529231-13.804308 5.750154-21.110154 1.043692-6.025846 1.673846-12.189538 1.673846-18.471384 0-0.886154-0.098462-1.732923-0.118154-2.579693a111.084308 111.084308 0 0 0-110.946462-108.406153 111.123692 111.123692 0 0 0-110.946461 108.406153c-0.019692 0.846769-0.118154 1.693538-0.118154 2.579693 0 6.301538 0.649846 12.465231 1.673846 18.471384 1.260308 7.286154 3.190154 14.355692 5.750154 21.110154z m57.383385-42.180923a46.414769 46.414769 0 0 1 46.276923-43.874461c24.772923 0 44.898462 19.456 46.25723 43.874461 0.039385 0.866462 0.236308 1.673846 0.236308 2.599385 0 6.537846-1.417846 12.780308-3.879385 18.471384a46.946462 46.946462 0 0 1-18.60923 21.090462 46.276923 46.276923 0 0 1-24.024616 6.892308c-8.802462 0-16.935385-2.638769-23.98523-6.892308a46.08 46.08 0 0 1-22.528-39.581539c0-0.905846 0.216615-1.713231 0.256-2.56z m-9.216 130.028308c-0.472615-0.196923-0.905846-0.452923-1.378462-0.649846a136.822154 136.822154 0 0 1-9.708308-4.726154 140.642462 140.642462 0 0 1-23.611077-16.364308 139.145846 139.145846 0 0 1-43.18523-66.126769c-2.048-6.892308-3.544615-13.942154-4.450462-21.090462-0.886154-6.104615-1.358769-12.288-1.417846-18.471384 0-0.886154 0.157538-1.732923 0.157538-2.599385h-44.504615a21.070769 21.070769 0 0 0-21.090462 21.070769v108.307693l0.059077 0.649846h149.129847z"  horiz-adv-x="1024" />

    
    <glyph glyph-name="xinjiancaigou" unicode="&#58942;" d="M163.958154 800.984615c22.311385 22.252308 58.88 22.252308 80.955077 0l295.778461-295.699692a57.442462 57.442462 0 0 0 0-80.974769 57.225846 57.225846 0 0 0-80.974769 0L163.938462 719.872a57.816615 57.816615 0 0 0 0 81.132308z m778.771692-291.899077H581.474462c18.983385-35.111385 13.824-80.029538-15.832616-109.725538a92.553846 92.553846 0 0 0-130.756923 0l-109.686154 109.725538H66.441846a66.244923 66.244923 0 0 1-65.969231-65.96923 66.244923 66.244923 0 0 1 65.969231-65.988923h15.832616l152.221538-446.227693h549.100308l152.221538 446.227693h6.912a66.166154 66.166154 0 0 1 65.969231 65.988923 66.166154 66.166154 0 0 1-65.969231 65.96923zM240.246154 335.517538h532.48a33.870769 33.870769 0 1 0 0-67.741538h-532.48c-18.628923 0-33.870769 15.241846-33.870769 33.870769s15.241846 33.870769 33.870769 33.870769z m74.436923-268.583384h387.032615c18.510769 0 33.752615-15.36 33.752616-33.969231 0-18.648615-15.241846-33.870769-33.752616-33.870769H314.643692c-18.569846 0-33.870769 15.222154-33.870769 33.870769 0 18.628923 15.300923 33.969231 33.870769 33.969231z m-37.218462 132.194461h464.797539c18.628923 0 33.870769-15.36 33.870769-34.107077a33.870769 33.870769 0 0 0-33.870769-33.752615H277.444923c-18.628923 0-33.693538 15.123692-33.693538 33.752615 0 18.747077 15.064615 34.107077 33.673846 34.107077zM600.280615 733.026462h317.794462v-70.616616H600.280615zM723.869538 538.820923V856.615385h70.616616v-317.794462z"  horiz-adv-x="1024" />

    
    <glyph glyph-name="zhihangcaigou" unicode="&#58943;" d="M163.958154 752.108308c22.311385 22.252308 58.88 22.252308 80.955077 0l295.778461-295.719385a57.442462 57.442462 0 0 0 0-80.974769 57.225846 57.225846 0 0 0-80.974769 0l-295.778461 295.581538a57.816615 57.816615 0 0 0 0 81.112616zM942.729846 460.209231H581.474462c18.983385-35.131077 13.824-80.049231-15.832616-109.745231a92.553846 92.553846 0 0 0-130.756923 0l-109.686154 109.745231H66.441846a66.244923 66.244923 0 0 1-65.969231-65.969231 66.244923 66.244923 0 0 1 65.969231-66.008615h15.832616l152.221538-446.227693h549.100308l152.221538 446.227693h6.912a66.166154 66.166154 0 0 1 65.969231 65.988923 66.166154 66.166154 0 0 1-65.969231 65.96923zM240.246154 286.621538h532.48a33.870769 33.870769 0 1 0 0-67.741538h-532.48c-18.628923 0-33.870769 15.241846-33.870769 33.870769 0 18.648615 15.241846 33.870769 33.870769 33.870769z m74.436923-268.583384h387.032615c18.510769 0 33.752615-15.340308 33.752616-33.969231 0-18.628923-15.241846-33.870769-33.752616-33.870769H314.643692c-18.569846 0-33.870769 15.241846-33.870769 33.870769s15.300923 33.969231 33.870769 33.969231z m-37.218462 132.194461h464.797539c18.628923 0 33.870769-15.36 33.870769-34.107077a33.870769 33.870769 0 0 0-33.870769-33.752615H277.444923c-18.628923 0-33.693538 15.123692-33.693538 33.752615 0 18.747077 15.064615 34.107077 33.673846 34.107077zM544.787692 895.704615v-193.181538h-96.551384l193.102769-193.122462 193.240615 193.142154h-96.551384V895.724308z"  horiz-adv-x="1024" />

    
    <glyph glyph-name="tubiao" unicode="&#58944;" d="M780.9509699-103.67615627999999H102.09279888c-23.41906036 0-42.41943008 19.00036972-42.41943008 42.41943009V702.29301533c0 23.41906036 19.00036972 42.41943008 42.41943008 42.41943008h84.83886018v-42.41943008c0-23.41906036 19.00036972-42.41943008 42.41943008-42.4194301h424.19430082c23.41906036 0 42.41943008 19.00036972 42.4194301 42.4194301v42.41943008h84.83886016c23.41906036 0 42.41943008-19.00036972 42.41943009-42.41943008v-763.69703121c0.1472897-23.27177067-18.85308003-42.27214039-42.27214041-42.2721404z m-371.3173029 636.29145127H218.74623162c-17.52747284 0-31.81457257-14.28709972-31.81457256-31.81457257 0-17.52747284 14.28709972-31.81457257 31.81457256-31.81457256h190.88743538c17.52747284 0 31.81457257 14.28709972 31.81457256 31.81457256 0 17.52747284-14.13981003 31.81457257-31.81457256 31.81457257z m138.89417558-148.46800529H211.08716784c-13.2560719 0-24.15550879-14.28709972-24.15550878-31.81457257 0-17.52747284 10.75214722-31.81457257 24.15550878-31.81457256h337.58796443c13.2560719 0 24.15550879 14.28709972 24.15550878 31.81457256-0.1472897 17.52747284-10.89943689 31.81457257-24.30279847 31.81457257z m-72.02465734-148.46800531H206.22660815c-10.60485751 0-19.2949491-14.28709972-19.29494909-31.81457255 0-17.52747284 8.69009158-31.81457257 19.29494909-31.81457257h270.27657709c10.60485751 0 19.2949491 14.28709972 19.29494911 31.81457257 0 17.52747284-8.69009158 31.81457257-19.29494911 31.81457255z m155.83248969 466.61373094H250.56080418c-11.78317502 0-21.20971504 9.42654002-21.20971504 21.20971504v42.41943008c0 11.78317502 9.42654002 21.20971504 21.20971504 21.20971504h106.0485752c0 46.83812071 38.00073946 84.83886017 84.83886018 84.83886017s84.83886017-38.00073946 84.83886016-84.83886017h106.04857521c11.78317502 0 21.20971504-9.42654002 21.20971503-21.20971504v-42.41943008c0-11.63588534-9.42654002-21.20971504-21.20971503-21.20971504z m-190.88743537 106.0485752c-11.78317502 0-21.20971504-9.42654002-21.20971504-21.20971504s9.42654002-21.20971504 21.20971504-21.20971504 21.20971504 9.42654002 21.20971503 21.20971504-9.42654002 21.20971504-21.20971503 21.20971504zM762.981628 87.80043785999999m-201.49229291 0a201.4922929 201.4922929 0 1 1 402.9845858 0 201.4922929 201.4922929 0 1 1-402.9845858 0ZM739.56256765 111.21949820999998h-97.06390427v-64.80746263h97.06390427v-97.06390425h64.80746261v97.06390425h97.06390427v64.80746263h-97.06390427v97.06390424h-64.80746261v-97.06390424z"  horiz-adv-x="1024" />

    
    <glyph glyph-name="tubiao1" unicode="&#58945;" d="M750.47822222 2.920296300000018H146.33339259c-20.87442963 0-37.74388148 16.86945185-37.74388148 37.74388148V720.41813333c0 20.87442963 16.86945185 37.74388148 37.74388148 37.74388149h75.48776296v-37.74388149c0-20.87442963 16.86945185-37.74388148 37.74388148-37.74388148h377.68154075c20.87442963 0 37.74388148 16.86945185 37.74388147 37.74388148v37.74388149h75.48776297c20.87442963 0 37.74388148-16.86945185 37.74388148-37.74388149v-679.75395555c0.12136297-20.87442963-16.86945185-37.74388148-37.74388148-37.74388148zM420.12823703 569.32124445h-169.90814814c-15.65582222 0-28.27757037-12.62174815-28.27757037-28.27757037s12.62174815-28.27757037 28.27757037-28.27757038h169.90814814c15.65582222 0 28.27757037 12.62174815 28.27757038 28.27757038s-12.62174815 28.27757037-28.27757038 28.27757037z m123.66885927-132.16426667H243.3024c-11.89357037 0-21.48124445-12.62174815-21.48124445-28.27757037s9.58767408-28.27757037 21.48124445-28.27757038h300.4946963c11.89357037 0 21.48124445 12.62174815 21.48124445 28.27757038-0.12136297 15.65582222-9.70903703 28.27757037-21.48124445 28.27757037z m-64.20100741-132.16426667H239.0546963c-9.46631111 0-17.23354075-12.62174815-17.23354075-28.27757036s7.64586667-28.27757037 17.23354075-28.27757038h240.54139259c9.46631111 0 17.23354075 12.62174815 17.23354074 28.27757038s-7.76722963 28.27757037-17.23354074 28.27757036z m138.71786666 415.42542222h-339.8162963c-10.43721482 0-18.93262222 8.49540741-18.93262222 18.93262222v37.74388148c0 10.43721482 8.49540741 18.93262222 18.93262222 18.93262222h94.4203852c0 41.74885925 33.86026667 75.48776297 75.48776296 75.48776297 41.74885925 0 75.48776297-33.86026667 75.48776296-75.48776297h94.42038518c10.43721482 0 18.93262222-8.49540741 18.93262223-18.93262222v-37.74388148c0-10.43721482-8.49540741-18.93262222-18.93262223-18.93262222z m-169.90814814 94.42038519c-10.43721482 0-18.93262222-8.49540741-18.93262223-18.93262222s8.49540741-18.93262222 18.93262223-18.93262222 18.93262222 8.49540741 18.93262222 18.93262222-8.49540741 18.93262222-18.93262222 18.93262222zM734.57967408 173.43525924999994m-179.2530963 0a179.2530963 179.2530963 0 1 1 358.50619259 0 179.2530963 179.2530963 0 1 1-358.50619259 0ZM885.06974815 46.610962969999946c6.5536-6.5536 6.5536-17.23354075 0-23.78714075-3.2768-3.2768-7.5245037-4.97588148-11.89357037-4.97588147-4.2477037 0-8.61677037 1.57771852-11.89357037 4.97588147l-50.12290371 50.1229037c-23.66577778-18.32580741-52.18607408-27.67075555-80.70637037-27.67075555-33.7389037 0-67.59917037 12.86447408-93.32811851 38.71478518-51.57925925 51.57925925-51.57925925 135.19834075 0 186.7776 25.72894815 25.72894815 59.58921482 38.71478518 93.32811851 38.7147852s67.59917037-12.86447408 93.32811852-38.7147852C871.35573333 223.19407407999995 874.87525925 148.55585184999995 834.82548148 96.73386667l50.24426667-50.1229037z m-224.1573926 61.16693333c18.56853333-18.56853333 43.32657778-28.88438518 69.66234075-28.88438519s50.97244445 10.19448889 69.66234073 28.88438519c18.56853333 18.56853333 28.88438518 43.32657778 28.88438519 69.66234073s-10.19448889 50.97244445-28.88438519 69.66234075c-18.56853333 18.56853333-43.32657778 28.88438518-69.66234073 28.88438519s-50.97244445-10.19448889-69.66234075-28.88438519-28.88438518-43.32657778-28.88438518-69.66234075 10.31585185-50.97244445 28.88438518-69.66234073z"  horiz-adv-x="1024" />

    
    <glyph glyph-name="tubiao2" unicode="&#58946;" d="M806.89581827-37.24275358H162.6041205c-22.26605827 0-40.26014025 17.99408197-40.26014025 40.26014025V727.82936494c0 22.26605827 17.99408197 40.26014025 40.26014025 40.26014024h80.52028048v-40.26014024c0-22.26605827 17.99408197-40.26014025 40.26014026-40.26014025h402.73085629c22.26605827 0 40.26014025 17.99408197 40.26014025 40.26014025v40.26014024h80.52028049c22.26605827 0 40.26014025-17.99408197 40.26014025-40.26014024v-724.81197827c0-22.26605827-17.99408197-40.26014025-40.26014025-40.26014025zM454.52250075 566.65935013h-181.23535803c-16.6995437 0-30.16274173-13.46319803-30.16274174-30.16274174s13.46319803-30.16274173 30.16274174-30.16274172h181.23535803c16.6995437 0 30.16274173 13.46319803 30.16274172 30.16274172 0.12945383 16.6995437-13.46319803 30.16274173-30.16274172 30.16274174z m131.91344986-140.84576396H266.03772839c-12.68647506 0-22.91332741-13.46319803-22.91332741-30.16274172s10.22685235-30.16274173 22.91332741-30.16274173h320.39822222c12.68647506 0 22.91332741 13.46319803 22.91332742 30.16274173 0 16.57008987-10.35630617 30.16274173-22.91332742 30.16274172z m-68.48107456-140.97521778H261.50684445c-10.09739852 0-18.38244347-13.46319803-18.38244347-30.16274172s8.15559111-30.16274173 18.38244347-30.16274173h256.57748542c10.09739852 0 18.38244347 13.46319803 18.38244346 30.16274173-0.12945383 16.6995437-8.28504494 30.16274173-18.51189728 30.16274172z m147.96572445 442.99099655H303.57933827c-11.13302914 0-20.19479703 9.0617679-20.19479703 20.19479703v40.26014025c0 11.13302914 9.0617679 20.19479703 20.19479703 20.19479703h100.71507754c0 44.53211653 36.11761778 80.5202805 80.52028049 80.5202805 44.53211653 0 80.5202805-36.11761778 80.5202805-80.5202805H666.05005431c11.13302914 0 20.19479703-9.0617679 20.19479705-20.19479703v-40.26014025c-0.12945383-11.26248297-9.19122173-20.19479703-20.32425086-20.19479703zM484.8146963 828.41498864c-11.13302914 0-20.19479703-9.0617679-20.19479705-20.19479703s9.0617679-20.19479703 20.19479705-20.19479704 20.19479703 9.0617679 20.19479703 20.19479704c-0.12945383 11.26248297-9.0617679 20.19479703-20.19479703 20.19479703zM789.80791309 144.51041974999998m-191.20330272 0a191.20330272 191.20330272 0 1 1 382.40660544 0 191.20330272 191.20330272 0 1 1-382.40660544 0ZM800.6729728 123.00813905999996h42.07249383c11.13302914 0 16.6995437-5.56651457 16.6995437-16.6995437 0-10.87412148-5.56651457-16.44063605-16.6995437-16.44063605h-42.07249383v-34.69362568c0-7.76722963-1.16508445-12.94538272-3.3657995-15.53445926-2.20071506-2.58907653-6.99050667-3.88361482-14.239921-3.88361482-6.34323753 0-10.87412148 1.29453827-13.72210567 3.88361482-2.84798419 2.58907653-4.14252247 7.76722963-4.14252247 15.53445926v34.69362568h-41.55467853c-11.13302914 0-16.6995437 5.43706075-16.69954369 16.44063605 0 11.13302914 5.43706075 16.6995437 16.18172839 16.6995437h42.07249383v15.14609777h-41.55467853c-11.13302914 0-16.6995437 5.43706075-16.69954369 16.44063606 0 11.13302914 5.43706075 16.6995437 16.18172839 16.6995437h23.56059655c-5.95487605 9.70903703-12.03920592 19.67698173-18.25298963 29.64492643s-12.16865975 19.93588939-18.25298963 29.64492641c-3.23634569 5.17815309-4.40143013 9.70903703-3.49525334 13.72210568 0.9061768 4.01306864 3.3657995 7.37886815 7.37886815 10.09739852 4.53088395 3.23634569 8.80286025 4.53088395 12.68647506 3.88361482 3.88361482-0.64726914 7.63777581-3.88361482 11.13302914-9.83849087l45.3088395-75.85994272c7.37886815 12.55702124 14.7577363 24.98458864 22.13660445 37.41215605 7.37886815 12.42756741 14.7577363 24.98458864 22.13660444 37.41215606 2.20071506 3.62470717 4.2719763 6.2137837 6.08432988 7.89668345 1.94180741 1.68289975 3.88361482 2.71853037 5.82542221 2.97743803 2.07126124 0.38836148 4.01306864 0 5.95487606-0.9061768 2.07126124-0.9061768 4.14252247-2.07126124 6.21378371-3.49525334 5.04869925-3.23634569 7.63777581-6.47269136 8.02613728-9.96794468s-1.03563061-8.02613728-4.14252247-13.59265185l-35.85871013-59.41930667h23.04278124c11.13302914 0 16.6995437-5.56651457 16.6995437-16.6995437 0-10.87412148-5.56651457-16.44063605-16.6995437-16.44063605h-42.07249383l0.12945383-14.7577363z"  horiz-adv-x="1024" />

    
    </font>
</defs>
</svg>
